<svg width="25" height="24" viewBox="0 0 25 24" fill="none" xmlns="http://www.w3.org/2000/svg">
<path d="M13.365 2.99999L22.891 19.5C22.9788 19.652 23.025 19.8244 23.025 20C23.025 20.1755 22.9788 20.348 22.891 20.5C22.8032 20.652 22.677 20.7782 22.525 20.866C22.373 20.9538 22.2005 21 22.025 21H2.973C2.79746 21 2.62502 20.9538 2.47301 20.866C2.32099 20.7782 2.19476 20.652 2.10699 20.5C2.01923 20.348 1.97302 20.1755 1.97302 20C1.97302 19.8244 2.01923 19.652 2.107 19.5L11.633 2.99999C11.7208 2.84798 11.847 2.72175 11.999 2.63399C12.151 2.54623 12.3235 2.50003 12.499 2.50003C12.6745 2.50003 12.847 2.54623 12.999 2.63399C13.151 2.72175 13.2772 2.84798 13.365 2.99999ZM4.705 19H20.293L12.5 5.49999L4.705 19ZM11.499 16H13.499V18H11.499V16ZM11.499 8.99999H13.499V14H11.499V8.99999Z" fill="#F59E0B"/>
</svg>
