<svg width="49" height="49" viewBox="0 0 49 49" fill="none" xmlns="http://www.w3.org/2000/svg">
<g filter="url(#filter0_b_51_1179)">
<rect x="0.783936" y="0.610596" width="47.936" height="47.936" rx="4.56533" fill="white" fill-opacity="0.2"/>
<path d="M28.7804 30.2152L23.1422 24.577L28.7804 18.9389C28.9149 18.8043 29.0217 18.6446 29.0945 18.4688C29.1673 18.293 29.2047 18.1046 29.2047 17.9144C29.2047 17.7241 29.1673 17.5357 29.0945 17.36C29.0217 17.1842 28.9149 17.0245 28.7804 16.8899C28.6459 16.7554 28.4861 16.6487 28.3104 16.5759C28.1346 16.5031 27.9462 16.4656 27.7559 16.4656C27.5657 16.4656 27.3773 16.5031 27.2015 16.5759C27.0257 16.6487 26.866 16.7554 26.7315 16.8899L20.0616 23.5598C19.9268 23.6943 19.82 23.854 19.7471 24.0297C19.6741 24.2055 19.6366 24.394 19.6366 24.5843C19.6366 24.7746 19.6741 24.9631 19.7471 25.1389C19.82 25.3146 19.9268 25.4743 20.0616 25.6088L26.7315 32.2787C27.2982 32.8454 28.2137 32.8454 28.7804 32.2787C29.3326 31.712 29.3471 30.7819 28.7804 30.2152Z" fill="white" fill-opacity="0.7"/>
</g>
<defs>
<filter id="filter0_b_51_1179" x="-10.6294" y="-10.8027" width="70.7627" height="70.7627" filterUnits="userSpaceOnUse" color-interpolation-filters="sRGB">
<feFlood flood-opacity="0" result="BackgroundImageFix"/>
<feGaussianBlur in="BackgroundImageFix" stdDeviation="5.70667"/>
<feComposite in2="SourceAlpha" operator="in" result="effect1_backgroundBlur_51_1179"/>
<feBlend mode="normal" in="SourceGraphic" in2="effect1_backgroundBlur_51_1179" result="shape"/>
</filter>
</defs>
</svg>
