<svg width="28" height="28" viewBox="0 0 28 28" fill="none" xmlns="http://www.w3.org/2000/svg">
<g id="&#240;&#159;&#166;&#134; icon &#34;arrow circle left&#34;">
<g id="Group">
<path id="Vector" opacity="0.4" d="M14 28C21.7319 28 28 21.7319 28 14C28 6.26801 21.7319 0 14 0C6.26801 0 0 6.26801 0 14C0 21.7319 6.26801 28 14 28Z" fill="#CCCCCC"/>
<path id="Vector_2" d="M15.7639 19.9923C15.4979 19.9923 15.2319 19.8943 15.0219 19.6843L10.0799 14.7423C9.67389 14.3363 9.67389 13.6643 10.0799 13.2583L15.0219 8.31622C15.4279 7.91022 16.0999 7.91022 16.5059 8.31622C16.9119 8.72222 16.9119 9.39422 16.5059 9.80022L12.3059 14.0003L16.5059 18.2003C16.9119 18.6063 16.9119 19.2783 16.5059 19.6843C16.3099 19.8943 16.0439 19.9923 15.7639 19.9923Z" fill="#1A1A1A"/>
</g>
</g>
</svg>
