<svg width="49" height="49" viewBox="0 0 49 49" fill="none" xmlns="http://www.w3.org/2000/svg">
<g filter="url(#filter0_b_293_28098)">
<path d="M28.5564 29.882L22.9182 24.2438L28.5564 18.6056C28.6909 18.4711 28.7976 18.3113 28.8704 18.1356C28.9432 17.9598 28.9807 17.7714 28.9807 17.5811C28.9807 17.3909 28.9432 17.2025 28.8704 17.0267C28.7976 16.8509 28.6909 16.6912 28.5564 16.5567C28.4218 16.4221 28.2621 16.3154 28.0863 16.2426C27.9106 16.1698 27.7222 16.1323 27.5319 16.1323C27.3417 16.1323 27.1533 16.1698 26.9775 16.2426C26.8017 16.3154 26.642 16.4221 26.5074 16.5567L19.8375 23.2266C19.7028 23.361 19.5959 23.5207 19.523 23.6965C19.4501 23.8723 19.4126 24.0607 19.4126 24.251C19.4126 24.4414 19.4501 24.6298 19.523 24.8056C19.5959 24.9814 19.7028 25.1411 19.8375 25.2755L26.5074 31.9454C27.0742 32.5121 27.9897 32.5121 28.5564 31.9454C29.1086 31.3787 29.1231 30.4487 28.5564 29.882Z" fill="#363A43"/>
<rect x="1.13062" y="0.84801" width="46.7947" height="46.7947" rx="3.99467" stroke="black" stroke-opacity="0.2" stroke-width="1.14133"/>
</g>
<defs>
<filter id="filter0_b_293_28098" x="-10.8534" y="-11.136" width="70.7627" height="70.7627" filterUnits="userSpaceOnUse" color-interpolation-filters="sRGB">
<feFlood flood-opacity="0" result="BackgroundImageFix"/>
<feGaussianBlur in="BackgroundImageFix" stdDeviation="5.70667"/>
<feComposite in2="SourceAlpha" operator="in" result="effect1_backgroundBlur_293_28098"/>
<feBlend mode="normal" in="SourceGraphic" in2="effect1_backgroundBlur_293_28098" result="shape"/>
</filter>
</defs>
</svg>
