<svg width="20" height="21" viewBox="0 0 20 21" fill="none" xmlns="http://www.w3.org/2000/svg">
<path d="M12.8536 7.10354L13.0001 6.9571V6.74999V5.7071L15.3334 3.37376V4.66666V5.16666H15.8334H17.1263L14.793 7.49999H13.7501H13.543L13.3965 7.64644L11.2715 9.77144L11.053 9.98994L11.1507 10.2831C11.1628 10.3193 11.1667 10.3637 11.1667 10.5C11.1667 10.8094 11.0438 11.1062 10.825 11.3249C10.6062 11.5437 10.3095 11.6667 10.0001 11.6667C9.69066 11.6667 9.39392 11.5437 9.17512 11.3249C8.95633 11.1062 8.83342 10.8094 8.83342 10.5C8.83342 10.1906 8.95633 9.89383 9.17512 9.67503C9.39392 9.45624 9.69066 9.33332 10.0001 9.33332C10.1364 9.33332 10.1808 9.33727 10.217 9.34933L10.5101 9.44705L10.7286 9.22854L12.8536 7.10354ZM7.00239 3.26293C7.95278 2.86927 8.97139 2.66666 10.0001 2.66666C10.6372 2.66666 11.2719 2.74775 11.8905 2.90246L11.3309 3.46211C10.8908 3.37628 10.4455 3.33332 10.0001 3.33332C8.09936 3.33332 6.27649 4.08838 4.93248 5.43239C3.58847 6.7764 2.83341 8.59927 2.83341 10.5C2.83341 12.4007 3.58847 14.2236 4.93248 15.5676C6.27649 16.9116 8.09936 17.6667 10.0001 17.6667C11.9008 17.6667 13.7237 16.9116 15.0677 15.5676C16.4117 14.2236 17.1667 12.4007 17.1667 10.5C17.1667 10.0545 17.1238 9.60923 17.038 9.16922L17.5947 8.61247C17.7521 9.22719 17.8334 9.86188 17.8334 10.5C17.8334 12.5775 17.0081 14.57 15.5391 16.039C14.07 17.508 12.0776 18.3333 10.0001 18.3333C8.97139 18.3333 7.95278 18.1307 7.00239 17.737C6.05201 17.3434 5.18847 16.7664 4.46108 16.039C2.99204 14.57 2.16675 12.5775 2.16675 10.5C2.16675 8.42246 2.99204 6.43002 4.46108 4.96099C5.18847 4.23359 6.05201 3.6566 7.00239 3.26293ZM6.8181 7.31801C7.54331 6.5928 8.49057 6.14068 9.50008 6.02784V6.69939C8.66794 6.80885 7.88951 7.18941 7.28951 7.78941C6.57062 8.5083 6.16675 9.48333 6.16675 10.5C6.16675 11.5167 6.57062 12.4917 7.28951 13.2106C8.0084 13.9295 8.98342 14.3333 10.0001 14.3333C11.0167 14.3333 11.9918 13.9295 12.7107 13.2106C13.3107 12.6106 13.6912 11.8321 13.8007 11H14.4722C14.3594 12.0095 13.9073 12.9568 13.1821 13.682C12.3382 14.5259 11.1936 15 10.0001 15C8.80661 15 7.66201 14.5259 6.8181 13.682C5.97419 12.8381 5.50008 11.6935 5.50008 10.5C5.50008 9.30652 5.97419 8.16192 6.8181 7.31801Z" fill="#EF4444" stroke="#EF4444"/>
</svg>
