<svg width="18" height="17" viewBox="0 0 18 17" fill="none" xmlns="http://www.w3.org/2000/svg">
<path d="M1.5 8.5C1.5 9.48491 1.69399 10.4602 2.0709 11.3701C2.44781 12.2801 3.00026 13.1069 3.6967 13.8033C4.39314 14.4997 5.21993 15.0522 6.12987 15.4291C7.03982 15.806 8.01509 16 9 16C9.98491 16 10.9602 15.806 11.8701 15.4291C12.7801 15.0522 13.6069 14.4997 14.3033 13.8033C14.9997 13.1069 15.5522 12.2801 15.9291 11.3701C16.306 10.4602 16.5 9.48491 16.5 8.5C16.5 6.51088 15.7098 4.60322 14.3033 3.1967C12.8968 1.79018 10.9891 1 9 1C7.01088 1 5.10322 1.79018 3.6967 3.1967C2.29018 4.60322 1.5 6.51088 1.5 8.5Z" stroke="#EF4444" stroke-width="2" stroke-linecap="round" stroke-linejoin="round"/>
<path d="M9 4.33333V8.49999L11.5 11" stroke="#EF4444" stroke-width="2" stroke-linecap="round" stroke-linejoin="round"/>
</svg>
