<svg width="24" height="25" viewBox="0 0 24 25" fill="none" xmlns="http://www.w3.org/2000/svg">
<g id="Group">
<path id="Vector" d="M18.2459 5.25903C18.4152 5.37037 18.58 5.49059 18.7402 5.6197C22.1002 8.3277 22.0909 13.914 18.7199 18.0964C15.3489 22.2787 9.89186 23.4747 6.53186 20.7667C6.27305 20.5582 6.03098 20.3297 5.80786 20.0834" stroke="black" stroke-width="0.666667" stroke-miterlimit="10"/>
<path id="Vector_2" d="M17.6247 17.1716C20.9788 13.0102 21.1278 7.56534 17.9576 5.01011C14.7873 2.45488 9.49829 3.75693 6.14419 7.91832C2.79008 12.0797 2.64103 17.5246 5.81128 20.0798C8.98152 22.6351 14.2705 21.333 17.6247 17.1716Z" stroke="black" stroke-width="0.666667" stroke-miterlimit="10"/>
<path id="Vector_3" d="M17.6243 17.1717L18.7196 18.0967M16.472 18.42L17.4373 19.4577M15.2523 19.4347L16.045 20.542M13.9143 20.3273L14.5383 21.442M18.512 15.925L19.675 16.7297" stroke="black" stroke-width="0.666667" stroke-miterlimit="10"/>
<path id="Vector_4" d="M7.38403 15.9067C7.40837 15.8293 7.58737 15.1687 7.61103 15.0913C9.5837 15.1267 9.68103 15.061 9.97403 14.0887C10.5274 12.2527 10.6887 11.924 11.2424 10.088C11.4367 9.44401 11.4024 9.30334 10.479 9.12734L9.9167 9.02368C9.9377 8.95568 10.0637 8.33201 10.0847 8.26434C11.4461 8.26498 12.8061 8.17713 14.156 8.00134L12.323 14.3347C12.037 15.3233 12.0724 15.4027 13.9664 15.7687C13.9444 15.8467 13.7664 16.508 13.7447 16.5863L7.38403 15.9067Z" stroke="black" stroke-width="0.666667" stroke-linecap="round" stroke-linejoin="round"/>
</g>
</svg>
