<svg width="25" height="24" viewBox="0 0 25 24" fill="none" xmlns="http://www.w3.org/2000/svg">
<path d="M6.136 18.364C7.60845 19.8365 9.54594 20.7528 11.6183 20.9568C13.6906 21.1608 15.7696 20.6399 17.5009 19.4828C19.2322 18.3257 20.5087 16.6041 21.1129 14.6113C21.717 12.6185 21.6115 10.4778 20.8142 8.55414C20.0169 6.63045 18.5772 5.04276 16.7404 4.06164C14.9037 3.08051 12.7835 2.76667 10.7413 3.17358C8.69909 3.58049 6.86116 4.68299 5.54073 6.29318C4.22031 7.90338 3.49909 9.92163 3.5 12.004V14" stroke="#00BF55" stroke-width="2" stroke-linecap="round" stroke-linejoin="round"/>
<path d="M1.5 12L3.5 14L5.5 12M11.5 8V13H16.5" stroke="#00BF55" stroke-width="2" stroke-linecap="round" stroke-linejoin="round"/>
</svg>
