<svg width="24" height="25" viewBox="0 0 24 25" fill="none" xmlns="http://www.w3.org/2000/svg">
<path d="M5.32343 19.6947H8.66171V14.1309C8.66171 13.8156 8.76854 13.5511 8.98219 13.3375C9.19584 13.1238 9.45993 13.0174 9.77447 13.0181H14.2255C14.5408 13.0181 14.8053 13.125 15.0189 13.3386C15.2326 13.5523 15.339 13.8164 15.3383 14.1309V19.6947H18.6766V9.67985L12 4.67242L5.32343 9.67985V19.6947ZM3.0979 19.6947V9.67985C3.0979 9.32748 3.17691 8.99365 3.33492 8.67836C3.49293 8.36308 3.71066 8.10344 3.98811 7.89943L10.6647 2.892C11.0541 2.59527 11.4993 2.4469 12 2.4469C12.5007 2.4469 12.9458 2.59527 13.3353 2.892L20.0119 7.89943C20.2901 8.10344 20.5082 8.36308 20.6662 8.67836C20.8242 8.99365 20.9028 9.32748 20.9021 9.67985V19.6947C20.9021 20.3067 20.684 20.8308 20.2478 21.267C19.8116 21.7032 19.2878 21.921 18.6766 21.9202H14.2255C13.9102 21.9202 13.6458 21.8134 13.4321 21.5998C13.2185 21.3861 13.112 21.122 13.1128 20.8075V15.2437H10.8872V20.8075C10.8872 21.1227 10.7804 21.3872 10.5668 21.6009C10.3531 21.8145 10.089 21.921 9.77447 21.9202H5.32343C4.71141 21.9202 4.1873 21.7021 3.75109 21.2659C3.31489 20.8297 3.09716 20.306 3.0979 19.6947Z" fill="#003FDD"/>
</svg>
