<svg width="150" height="149" viewBox="0 0 150 149" fill="none" xmlns="http://www.w3.org/2000/svg">
<g id="illustration">
<path id="Vector" opacity="0.2" d="M75 149C116.145 149 149.5 115.645 149.5 74.5C149.5 33.3548 116.145 0 75 0C33.8548 0 0.5 33.3548 0.5 74.5C0.5 115.645 33.8548 149 75 149Z" fill="#0A6BFB"/>
<path id="Vector_2" opacity="0.2" d="M17.5884 74.2683C19.8464 74.2683 21.6768 72.6412 21.6768 70.6341C21.6768 68.627 19.8464 67 17.5884 67C15.3304 67 13.5 68.627 13.5 70.6341C13.5 72.6412 15.3304 74.2683 17.5884 74.2683Z" fill="#0A6BFB"/>
<path id="Vector_3" opacity="0.2" d="M119.951 35.9024C122.962 35.9024 125.402 33.4618 125.402 30.4512C125.402 27.4406 122.962 25 119.951 25C116.941 25 114.5 27.4406 114.5 30.4512C114.5 33.4618 116.941 35.9024 119.951 35.9024Z" fill="#0A6BFB"/>
<path id="Vector_4" opacity="0.2" d="M46.0427 121.085C48.5515 121.085 50.5854 119.052 50.5854 116.543C50.5854 114.034 48.5515 112 46.0427 112C43.5338 112 41.5 114.034 41.5 116.543C41.5 119.052 43.5338 121.085 46.0427 121.085Z" fill="#0A6BFB"/>
<path id="Vector_5" opacity="0.2" d="M92.2622 121.744C93.7675 121.744 94.9878 120.524 94.9878 119.018C94.9878 117.513 93.7675 116.293 92.2622 116.293C90.7569 116.293 89.5366 117.513 89.5366 119.018C89.5366 120.524 90.7569 121.744 92.2622 121.744Z" fill="#0A6BFB"/>
<path id="Vector_6" d="M123.923 58.1697L123.986 57.878C124.07 57.5285 124.084 57.1661 124.026 56.8114C123.968 56.4567 123.841 56.1168 123.65 55.8112C123.46 55.5055 123.211 55.2401 122.917 55.03C122.623 54.82 122.291 54.6696 121.938 54.5872L36.4205 34.5996C36.0676 34.5158 35.7014 34.5019 35.343 34.5587C34.9846 34.6155 34.641 34.7419 34.332 34.9306C34.0229 35.1194 33.7544 35.3667 33.5419 35.6586C33.3294 35.9505 33.177 36.2811 33.0935 36.6315L33.02 36.9474L21.5347 85.3901L21.471 85.6866C21.3873 86.0361 21.3738 86.3986 21.4315 86.7532C21.4891 87.1079 21.6168 87.4478 21.807 87.7534C21.9972 88.0591 22.2464 88.3245 22.5402 88.5346C22.834 88.7446 23.1666 88.8951 23.5191 88.9774L23.8082 89.0454H23.8376L108.709 108.887L109.007 108.95C109.36 109.033 109.725 109.047 110.083 108.99C110.44 108.932 110.783 108.806 111.091 108.617C111.399 108.428 111.667 108.181 111.878 107.89C112.09 107.598 112.242 107.268 112.325 106.919L112.398 106.603L123.903 58.1599L123.923 58.1697Z" fill="#0A6BFB"/>
<path id="Vector_7" d="M125.803 57.8681L125.734 58.1548C125.837 57.716 125.839 57.2601 125.74 56.8204C125.641 56.3807 125.443 55.9684 125.161 55.6136L74.121 71.7744L35.7953 34.8902C35.3773 35.088 35.0096 35.3752 34.719 35.7308C34.4285 36.0864 34.2224 36.5014 34.1158 36.9455L34.1899 36.6297C34.3611 35.923 34.8106 35.312 35.4395 34.9312C36.0684 34.5503 36.8253 34.4307 37.5439 34.5986L123.733 54.5786C124.089 54.6604 124.425 54.8104 124.722 55.0201C125.019 55.2298 125.27 55.4951 125.463 55.8007C125.655 56.1063 125.784 56.4462 125.842 56.801C125.901 57.1558 125.887 57.5184 125.803 57.8681Z" fill="#0A6BFB"/>
<path id="Vector_8" d="M125.231 56.2431C125.511 56.5998 125.707 57.0143 125.806 57.4562C125.904 57.8981 125.902 58.3564 125.8 58.7974C125.8 58.7974 125.8 58.7974 125.8 58.8267L114.288 107.5L114.215 107.817C114.131 108.169 113.979 108.5 113.766 108.793C113.554 109.086 113.286 109.334 112.977 109.524C112.668 109.713 112.325 109.841 111.967 109.898C111.609 109.955 111.243 109.942 110.891 109.858L110.596 109.795C110.592 109.793 110.588 109.792 110.584 109.792C110.58 109.792 110.576 109.793 110.572 109.795L25.6558 89.8492L25.3421 89.7759C24.9889 89.6937 24.6555 89.5429 24.361 89.3321C24.0665 89.1214 23.8167 88.8547 23.6258 88.5476C23.435 88.2404 23.3069 87.8987 23.2489 87.5421C23.1908 87.1855 23.2041 86.821 23.2878 86.4695L23.3564 86.1716L34.8681 37.4988C34.9739 37.0525 35.1784 36.6353 35.4668 36.2779C35.7553 35.9205 36.1202 35.6318 36.5351 35.4329" fill="#0A6BFB"/>
<path id="Vector_9" d="M74.0914 72.0646L23.8555 88.128C23.5774 87.7738 23.3825 87.3625 23.2849 86.9239C23.1874 86.4854 23.1896 86.0308 23.2915 85.5932L34.7078 37.4753C34.8127 37.034 35.0156 36.6216 35.3016 36.2683C35.5876 35.9149 35.9496 35.6295 36.361 35.4329L74.0914 72.0646Z" fill="#0A6BFB"/>
<path id="Vector_10" d="M125.799 57.989C125.799 57.989 125.799 57.989 125.799 58.0184L114.179 106.957C114.072 107.405 113.866 107.823 113.575 108.181C113.283 108.539 112.915 108.827 112.496 109.024L74.0914 71.7532L125.225 55.4207C125.507 55.7793 125.706 56.196 125.805 56.6404C125.904 57.0847 125.902 57.5455 125.799 57.989Z" fill="#0A6BFB"/>
<path id="Vector_11" d="M74.0626 71.7744L23.2134 87.9656C23.6463 88.5264 24.2646 88.9191 24.9604 89.0752L110.193 108.941C110.884 109.105 111.611 109.026 112.25 108.717L74.0626 71.7744Z" fill="#0A6BFB"/>
<path id="Vector_12" d="M35.933 34.9786L71.5141 73.3005C72.0282 73.8475 72.7008 74.2313 73.4437 74.4015C74.1866 74.5718 74.9652 74.5206 75.6776 74.2546L124.97 55.7788" fill="#0A6BFB"/>
<path id="Vector_13" d="M74.0915 83.5854C80.6145 83.5854 85.9025 78.5008 85.9025 72.2286C85.9025 65.9565 80.6145 60.8719 74.0915 60.8719C67.5685 60.8719 62.2805 65.9565 62.2805 72.2286C62.2805 78.5008 67.5685 83.5854 74.0915 83.5854Z" fill="#0A6BFB"/>
<path id="Vector_14" d="M75 83.5854C81.523 83.5854 86.811 78.7042 86.811 72.683C86.811 66.6617 81.523 61.7805 75 61.7805C68.477 61.7805 63.189 66.6617 63.189 72.683C63.189 78.7042 68.477 83.5854 75 83.5854Z" fill="white"/>
<path id="Vector_15" d="M72.1751 82.4062C70.1617 81.9372 68.3327 80.8813 66.9196 79.3722C65.5065 77.8631 64.5728 75.9687 64.2366 73.9287C63.9004 71.8888 64.1769 69.7949 65.0311 67.9121C65.8853 66.0294 67.2788 64.4424 69.0352 63.352C70.7916 62.2615 72.832 61.7167 74.8982 61.7865C76.9643 61.8562 78.9633 62.5374 80.6422 63.7437C82.3211 64.9501 83.6044 66.6275 84.3297 68.5636C85.055 70.4996 85.1897 72.6074 84.7168 74.6201C84.0814 77.3131 82.4048 79.6446 80.0541 81.1039C77.7034 82.5633 74.8703 83.0316 72.1751 82.4062ZM76.8638 62.4005C74.9186 61.9445 72.8819 62.0756 71.0113 62.7773C69.1406 63.479 67.5201 64.7198 66.3546 66.3426C65.1891 67.9655 64.531 69.8976 64.4635 71.8945C64.396 73.8914 64.9222 75.8635 65.9755 77.5614C67.0288 79.2592 68.5619 80.6065 70.3809 81.4329C72.1999 82.2593 74.2231 82.5277 76.1946 82.2041C78.1661 81.8804 79.9974 80.9794 81.4568 79.6148C82.9162 78.2503 83.9383 76.4835 84.3936 74.5381C84.9961 71.9305 84.5424 69.1904 83.1316 66.9163C81.7208 64.6421 79.4675 63.0187 76.8638 62.4005Z" fill="#0A6BFB"/>
<path id="Union" fill-rule="evenodd" clip-rule="evenodd" d="M72.245 77.2158C72.1165 77.2325 71.9852 77.2279 71.8573 77.2016V77.2205C71.7025 77.1867 71.5575 77.1218 71.4326 77.0304C71.3077 76.9391 71.2059 76.8236 71.1343 76.6919L68.7565 72.3258C68.6923 72.2078 68.6538 72.0791 68.6432 71.9473C68.6327 71.8154 68.6502 71.6829 68.6949 71.5573C68.7396 71.4317 68.8105 71.3156 68.9036 71.2154C68.9968 71.1152 69.1103 71.0331 69.2376 70.9736C69.365 70.9141 69.5038 70.8784 69.646 70.8686C69.7883 70.8588 69.9312 70.8751 70.0667 70.9165C70.2021 70.9579 70.3275 71.0237 70.4355 71.11C70.5436 71.1963 70.6322 71.3015 70.6964 71.4196L72.5488 74.8135L80.7202 69.2023C80.9447 69.0613 81.2135 69.0151 81.4703 69.0735C81.7271 69.1319 81.952 69.2903 82.0977 69.5154C82.2435 69.7406 82.2988 70.015 82.2521 70.2812C82.2054 70.5474 82.0603 70.7846 81.8472 70.9432L72.9311 77.0608C72.8167 77.1363 72.6887 77.1873 72.5547 77.2108C72.4522 77.2288 72.3477 77.2304 72.245 77.2158Z" fill="#0A6BFB"/>
<path id="Vector_16" opacity="0.2" d="M45.0182 26.7927C48.0289 26.7927 50.4695 24.3521 50.4695 21.3415C50.4695 18.3309 48.0289 15.8903 45.0182 15.8903C42.0076 15.8903 39.567 18.3309 39.567 21.3415C39.567 24.3521 42.0076 26.7927 45.0182 26.7927Z" fill="#0A6BFB"/>
<path id="Vector_17" opacity="0.2" d="M134.515 90.8537C136.773 90.8537 138.604 89.0233 138.604 86.7653C138.604 84.5073 136.773 82.6769 134.515 82.6769C132.257 82.6769 130.427 84.5073 130.427 86.7653C130.427 89.0233 132.257 90.8537 134.515 90.8537Z" fill="#0A6BFB"/>
<path id="Vector_18" opacity="0.2" d="M86.0427 37.0854C88.5515 37.0854 90.5854 35.0516 90.5854 32.5427C90.5854 30.0338 88.5515 28 86.0427 28C83.5338 28 81.5 30.0338 81.5 32.5427C81.5 35.0516 83.5338 37.0854 86.0427 37.0854Z" fill="#0A6BFB"/>
<path id="Vector_19" d="M124.177 87.3974C117.346 87.7874 110.928 85.1126 108.272 83.8227C107.884 83.6362 107.452 83.5573 107.023 83.5942C106.594 83.6312 106.182 83.7827 105.832 84.0327C103.433 85.7475 97.5677 89.4672 90.7419 90.2322C90.12 90.3039 89.5512 90.6155 89.1579 91.0998C88.7647 91.5841 88.5785 92.2026 88.6394 92.822C89.2379 99.0265 92.4069 115.565 109.197 125.064C109.619 125.304 110.105 125.41 110.589 125.369C111.073 125.328 111.533 125.142 111.908 124.834C126.838 112.64 127.145 95.8367 126.672 89.5922C126.624 88.976 126.337 88.4024 125.871 87.9927C125.406 87.5831 124.798 87.3696 124.177 87.3974Z" fill="#0A6BFB"/>
<path id="Vector_20" d="M124.246 86.493C117.573 86.878 111.308 84.2034 108.715 82.9186C108.337 82.7298 107.916 82.6491 107.497 82.6852C107.077 82.7213 106.675 82.8728 106.334 83.1235C103.992 84.8433 98.2668 88.5577 91.6039 89.3276C90.9974 89.3994 90.4425 89.71 90.058 90.193C89.6735 90.6761 89.49 91.2931 89.5467 91.9122C90.1309 98.1213 93.2242 114.654 109.614 124.157C110.027 124.396 110.501 124.502 110.974 124.461C111.448 124.42 111.898 124.234 112.265 123.927C126.838 111.734 127.133 94.9017 126.676 88.6877C126.631 88.0719 126.351 87.4984 125.898 87.0886C125.444 86.6789 124.851 86.4653 124.246 86.493Z" fill="#FFA800"/>
<path id="Vector_21" d="M122.718 88.7197C116.86 89.0569 111.356 86.7363 109.084 85.6106C108.751 85.4472 108.38 85.3779 108.011 85.4102C107.642 85.4425 107.288 85.5752 106.988 85.7941C104.932 87.2817 99.9056 90.5147 94.0722 91.1842C93.5394 91.2466 93.0521 91.5174 92.7154 91.9385C92.3787 92.3596 92.2195 92.8971 92.2721 93.4354C92.7639 98.8304 95.4986 113.21 109.89 121.472C110.252 121.68 110.669 121.772 111.084 121.737C111.499 121.701 111.894 121.54 112.217 121.273C125.005 110.667 125.275 96.0337 124.872 90.6288C124.832 90.0899 124.584 89.5883 124.181 89.2314C123.778 88.8746 123.253 88.6909 122.718 88.7197Z" fill="url(#paint0_linear_200_2446)"/>
<path id="Vector_22" d="M109.524 110.841C114.542 110.841 118.61 106.774 118.61 101.756C118.61 96.7384 114.542 92.6707 109.524 92.6707C104.507 92.6707 100.439 96.7384 100.439 101.756C100.439 106.774 104.507 110.841 109.524 110.841Z" fill="#FDD60B"/>
<path id="Vector_23" d="M110.773 111.715C108.893 111.88 107.009 111.457 105.359 110.5C103.708 109.543 102.366 108.095 101.501 106.339C100.636 104.583 100.288 102.597 100.499 100.634C100.711 98.6704 101.474 96.8168 102.691 95.3072C103.908 93.7977 105.525 92.7 107.338 92.1529C109.15 91.6058 111.077 91.6339 112.874 92.2335C114.672 92.8331 116.259 93.9774 117.436 95.5218C118.612 97.0662 119.326 98.9413 119.485 100.91C119.696 103.553 118.896 106.175 117.263 108.201C115.629 110.227 113.295 111.491 110.773 111.715ZM109.263 93.1625C107.642 93.3108 106.101 93.9587 104.832 95.0244C103.563 96.0901 102.624 97.5258 102.133 99.1501C101.643 100.774 101.623 102.515 102.076 104.151C102.529 105.787 103.435 107.246 104.679 108.343C105.923 109.441 107.449 110.127 109.066 110.316C110.682 110.505 112.316 110.188 113.76 109.405C115.204 108.623 116.395 107.409 117.181 105.918C117.968 104.426 118.315 102.724 118.178 101.027C118.088 99.8965 117.785 98.7961 117.287 97.7887C116.79 96.7812 116.107 95.8865 115.279 95.1559C114.45 94.4253 113.493 93.8732 112.46 93.5311C111.428 93.1891 110.341 93.0638 109.263 93.1625Z" fill="#FFA800"/>
<path id="Union_2" fill-rule="evenodd" clip-rule="evenodd" d="M111.332 101.185C111.895 100.769 112.25 100.161 112.25 99.4847C112.25 98.2303 111.03 97.2134 109.524 97.2134C108.019 97.2134 106.799 98.2303 106.799 99.4847C106.799 100.419 107.476 101.222 108.443 101.57L108.943 106.172C108.981 106.473 109.168 106.751 109.464 106.944C109.76 107.137 110.141 107.23 110.523 107.203C110.904 107.171 111.255 107.023 111.499 106.79C111.743 106.556 111.862 106.257 111.829 105.955L111.332 101.185Z" fill="#FFA800"/>
</g>
<defs>
<linearGradient id="paint0_linear_200_2446" x1="108.616" y1="85.4024" x2="108.616" y2="121.744" gradientUnits="userSpaceOnUse">
<stop stop-color="#FFD18C"/>
<stop offset="1" stop-color="#F4B75B"/>
</linearGradient>
</defs>
</svg>
