<svg width="12" height="12" viewBox="0 0 12 12" fill="none" xmlns="http://www.w3.org/2000/svg">
<g id="evaDiagonalArrowRightUpOutline0">
<g id="evaDiagonalArrowRightUpOutline1">
<path id="evaDiagonalArrowRightUpOutline2" d="M1.04414 12.0058C0.778924 12.0058 0.52457 11.9004 0.337033 11.7129C0.149497 11.5254 0.0441403 11.271 0.0441403 11.0058L-0.00585951 3.0058C-0.00585949 2.74058 0.0994976 2.48623 0.287034 2.29869C0.47457 2.11116 0.728924 2.0058 0.994141 2.0058C1.25936 2.0058 1.51371 2.11116 1.70125 2.29869C1.88878 2.48623 1.99414 2.74058 1.99414 3.0058L1.99414 8.5658L10.2841 0.295799C10.3771 0.20207 10.4877 0.127676 10.6096 0.0769076C10.7314 0.026139 10.8621 4.75055e-07 10.9941 4.80825e-07C11.1262 4.86596e-07 11.2569 0.026139 11.3787 0.0769077C11.5006 0.127676 11.6112 0.20207 11.7041 0.295799C11.7979 0.388762 11.8723 0.499363 11.923 0.621222C11.9738 0.743081 11.9999 0.873787 11.9999 1.0058C11.9999 1.13781 11.9738 1.26852 11.923 1.39038C11.8723 1.51223 11.7979 1.62284 11.7041 1.7158L3.41414 10.0058L8.99414 10.0058C9.25936 10.0058 9.51371 10.1112 9.70125 10.2987C9.88878 10.4862 9.99414 10.7406 9.99414 11.0058C9.99414 11.271 9.88878 11.5254 9.70125 11.7129C9.51371 11.9004 9.25936 12.0058 8.99414 12.0058L1.04414 12.0058Z" fill="#00BF55"/>
</g>
</g>
</svg>
