<svg width="36" height="36" viewBox="0 0 36 36" fill="none" xmlns="http://www.w3.org/2000/svg">
<rect width="36" height="36" rx="18" fill="white"/>
<path d="M8.30713 23.5755C8.30713 21.7045 8.30713 19.9683 8.30713 18.0374C14.8587 20.4323 21.2762 22.7822 27.7086 25.1471C27.7086 26.9882 27.7086 28.7094 27.7086 30.6702C21.1571 28.2604 14.7544 25.9254 8.30713 23.5755Z" fill="#FFBC00"/>
<path d="M8.27734 15.5826C8.27734 15.1635 8.27734 14.8492 8.27734 14.4451C14.7098 11.4216 21.1422 8.41308 27.7086 5.32971C27.7086 7.32043 27.7086 9.13153 27.7086 11.0474C26.979 11.4066 26.2196 11.7958 25.4305 12.155C22.0207 13.7566 18.5811 15.3282 15.1862 16.9597C14.2184 17.4237 13.3846 17.5135 12.3721 17.0794C11.0766 16.4957 9.69188 16.0916 8.27734 15.5826Z" fill="#003FDD"/>
<path d="M23.6131 15.4779C24.8936 15.9419 26.1444 16.376 27.3653 16.825C27.4696 16.8699 27.5738 16.9597 27.7227 17.0645C27.7227 18.8157 27.7227 20.5969 27.7227 22.5277C24.1938 21.2405 20.7542 19.9832 17.2998 18.7409C17.2998 18.6511 17.2849 18.5762 17.2849 18.4864C19.4142 17.4686 21.5136 16.4658 23.6131 15.4779Z" fill="#FF6700"/>
</svg>
