<svg width="120" height="27" viewBox="0 0 120 27" fill="none" xmlns="http://www.w3.org/2000/svg">
<g clip-path="url(#clip0_59_1233)">
<path d="M0.726318 19.1616C0.726318 17.2906 0.726318 15.5544 0.726318 13.6235C7.27786 16.0184 13.6954 18.3683 20.1278 20.7332C20.1278 22.5743 20.1278 24.2956 20.1278 26.2563C13.5763 23.8465 7.17363 21.5116 0.726318 19.1616Z" fill="#FFBC00"/>
<path d="M0.696533 11.1688C0.696533 10.7497 0.696533 10.4354 0.696533 10.0313C7.12895 7.00778 13.5614 3.99926 20.1278 0.915894C20.1278 2.90661 20.1278 4.71771 20.1278 6.63359C19.3982 6.99282 18.6388 7.38198 17.8496 7.7412C14.4399 9.34276 11.0003 10.9144 7.60543 12.5459C6.63759 13.0099 5.80375 13.0997 4.79124 12.6656C3.49583 12.0819 2.11107 11.6777 0.696533 11.1688Z" fill="#003FDD"/>
<path d="M72.8823 11.4232C72.8823 10.4653 72.8823 9.50737 72.8823 8.53446C72.8823 7.59149 72.8823 6.66349 72.8823 5.66064C73.8353 5.66064 74.6245 5.66064 75.4881 5.66064C75.4881 10.8994 75.4881 16.0483 75.4881 21.287C74.6245 21.287 73.8502 21.287 72.9866 21.287C72.9568 20.823 72.9419 20.4039 72.8972 19.88C72.6888 20.0297 72.5399 20.0746 72.4654 20.1794C71.1849 21.751 69.5024 21.9755 67.6709 21.5115C65.8394 21.0475 64.6334 19.8202 64.1867 17.9791C63.6506 15.7789 63.6804 13.6235 65.1396 11.7076C66.8073 9.50736 70.2766 9.25291 72.257 11.1538C72.3761 11.2736 72.5101 11.3634 72.6441 11.4681C72.7335 11.4681 72.8079 11.4532 72.8823 11.4232ZM72.8823 15.7789C72.9568 14.6563 72.7334 13.5936 71.7656 12.8601C70.3511 11.7974 68.192 12.0818 67.2242 13.4289C66.1521 14.9107 66.4499 17.7696 67.7751 18.7126C67.8347 18.7575 67.8942 18.7874 67.9687 18.8323C69.1003 19.5208 70.2766 19.5807 71.438 18.9221C72.6292 18.2486 72.9568 17.111 72.8823 15.7789Z" fill="white"/>
<path d="M46.6611 14.5365C46.9142 13.5037 46.542 12.6356 45.7826 12.2914C44.3681 11.6627 43.2513 12.1267 42.0453 13.9079C41.3454 13.6684 40.6307 13.4289 39.8416 13.1745C39.9607 12.1566 40.4967 11.4532 41.2114 10.9143C42.9684 9.62709 44.9339 9.61212 46.8845 10.2707C48.6266 10.8694 49.2817 12.3363 49.3562 14.0875C49.4008 15.4047 49.3562 16.7218 49.3711 18.0539C49.3711 18.3832 49.4604 18.7125 49.5051 19.0718C49.9667 19.1466 50.324 19.2065 50.7856 19.2813C50.7856 19.91 50.7856 20.5386 50.7856 21.1523C49.3115 21.751 48.0608 21.3469 46.9738 19.91C46.8696 20.0147 46.7207 20.0896 46.676 20.1943C45.6635 22.3647 41.3305 21.9755 40.0202 20.2542C38.4121 18.1288 39.6629 15.1652 42.4324 14.7461C43.5045 14.5814 44.6063 14.6263 45.6933 14.5814C45.9911 14.5814 46.3186 14.5515 46.6611 14.5365ZM46.6909 16.8266C45.4253 16.8266 44.1298 16.6769 42.894 16.8715C41.8666 17.0361 41.6432 18.3982 42.4473 19.0418C43.3853 19.7603 44.4127 19.6256 45.3955 19.1466C46.3484 18.7125 46.7802 17.8743 46.6909 16.8266Z" fill="white"/>
<path d="M96.2897 17.575C96.9449 17.9492 97.5702 18.3084 98.2552 18.6976C97.734 20.0447 96.8109 20.8978 95.5899 21.3169C91.5547 22.679 87.6983 20.4338 87.7429 15.8836C87.7578 13.6534 88.413 11.8273 90.3636 10.615C92.1057 9.53728 94.8752 9.68695 96.5577 10.9293C98.1658 12.1117 99.0146 14.4168 98.5232 16.5272C95.9175 16.5272 93.2522 16.5272 90.6465 16.5272C90.3933 17.56 90.8996 18.473 91.8972 19.0119C93.3564 19.8052 94.7263 19.3861 96.2897 17.575ZM95.8281 14.4916C95.843 13.0547 94.6369 12.1267 92.9842 12.2315C91.6143 12.3213 90.4827 13.369 90.6167 14.4916C92.3588 14.4916 94.086 14.4916 95.8281 14.4916Z" fill="white"/>
<path d="M62.3553 21.2871C61.5065 21.2871 60.7323 21.2871 59.8686 21.2871C59.8389 20.9279 59.7793 20.6135 59.7793 20.2992C59.7644 18.4732 59.7793 16.662 59.7644 14.836C59.7495 13.2793 59.0944 12.486 57.6352 12.2615C56.3249 12.0669 55.0741 12.8303 54.6721 14.1175C54.5232 14.5815 54.4636 15.0904 54.4487 15.5844C54.419 17.156 54.4487 18.7276 54.4338 20.2992C54.4338 20.5986 54.3892 20.883 54.3594 21.2572C53.5107 21.2572 52.7066 21.2572 51.8132 21.2572C51.8132 17.62 51.8132 13.9978 51.8132 10.3007C52.662 10.3007 53.4511 10.3007 54.2998 10.3007C54.3743 10.7498 54.4338 11.1539 54.5083 11.6778C54.7019 11.5131 54.8359 11.4233 54.9401 11.3036C56.0568 9.92654 57.5458 9.77687 59.1242 10.1211C60.5834 10.4504 61.6108 11.3485 62.1021 12.7854C62.3106 13.414 62.4297 14.1026 62.4446 14.7611C62.4893 16.662 62.4595 18.548 62.4595 20.4489C62.4595 20.7183 62.3999 20.9877 62.3553 21.2871Z" fill="white"/>
<path d="M104.494 17.3355C103.526 18.7125 102.603 19.9848 101.695 21.287C100.712 21.287 99.759 21.287 98.5827 21.287C99.9823 19.3711 101.278 17.59 102.618 15.7489C101.322 13.9677 100.042 12.2016 98.6423 10.2857C99.759 10.2857 100.697 10.2857 101.71 10.2857C102.603 11.528 103.526 12.8152 104.509 14.1923C104.777 13.863 104.985 13.6235 105.164 13.369C105.581 12.7853 105.998 12.1866 106.415 11.6028C107.472 10.136 108.291 9.86658 110.331 10.3755C109.02 12.1866 107.755 13.9228 106.445 15.7489C107.755 17.5451 109.05 19.3262 110.346 21.1074C110.316 21.1822 110.301 21.2571 110.271 21.3319C109.571 21.3319 108.872 21.272 108.172 21.3469C107.234 21.4367 106.966 20.7182 106.564 20.1494C106.043 19.416 105.551 18.6676 105.03 17.9342C104.896 17.7845 104.732 17.6349 104.494 17.3355Z" fill="white"/>
<path d="M39.038 18.8921C39.038 19.7902 39.038 20.4936 39.038 21.272C35.6878 21.272 32.412 21.272 29.0469 21.272C29.0469 16.0781 29.0469 10.9292 29.0469 5.67554C29.9105 5.67554 30.7294 5.67554 31.727 5.67554C31.8759 10.0461 31.6973 14.4018 31.8313 18.8921C34.2583 18.8921 36.596 18.8921 39.038 18.8921Z" fill="white"/>
<path d="M87.8171 10.3007C86.5813 14.0576 85.405 17.6648 84.2138 21.302C82.7993 21.302 81.5038 21.302 80.0297 21.302C78.8534 17.6947 77.6623 14.0725 76.4413 10.3306C77.424 10.3306 78.2578 10.3306 79.2257 10.3306C80.1191 13.3092 81.0274 16.3177 81.9356 19.3113C82.0399 19.3113 82.159 19.3262 82.2632 19.3262C83.1566 16.3327 84.0649 13.3391 84.9732 10.3007C85.9261 10.3007 86.7748 10.3007 87.8171 10.3007Z" fill="white"/>
<path d="M113.398 6.70837C114.396 6.70837 115.155 6.70837 116.048 6.70837C116.048 7.87586 116.048 8.96851 116.048 10.2108C117.135 10.2108 118.088 10.2108 119.116 10.2108C119.116 10.9742 119.116 11.5879 119.116 12.3512C118.133 12.3512 117.18 12.3512 116.272 12.3512C116.182 12.5608 116.108 12.6506 116.108 12.7404C116.093 14.6563 116.078 16.5721 116.093 18.503C116.093 18.9969 116.406 19.2065 116.882 19.1915C117.493 19.1915 118.118 19.1915 118.818 19.1915C118.818 19.91 118.818 20.5386 118.818 21.2571C118.475 21.287 118.148 21.3319 117.805 21.3319C117.18 21.3469 116.569 21.3319 115.944 21.3319C114.232 21.3319 113.398 20.5087 113.383 18.7574C113.368 16.9613 113.383 15.1652 113.368 13.369C113.368 13.0847 113.323 12.7853 113.294 12.3662C112.385 12.3662 111.537 12.3662 110.614 12.3662C110.614 11.6028 110.614 10.9892 110.614 10.2108C111.522 10.2108 112.371 10.2108 113.398 10.2108C113.398 8.98348 113.398 7.86089 113.398 6.70837Z" fill="white"/>
<path d="M16.0323 11.064C17.3128 11.528 18.5636 11.962 19.7845 12.4111C19.8888 12.456 19.993 12.5458 20.1419 12.6505C20.1419 14.4018 20.1419 16.1829 20.1419 18.1138C16.613 16.8266 13.1734 15.5693 9.71899 14.3269C9.71899 14.2371 9.7041 14.1623 9.7041 14.0725C11.8334 13.0547 13.9328 12.0518 16.0323 11.064Z" fill="#FF6700"/>
</g>
<defs>
<clipPath id="clip0_59_1233">
<rect width="118.434" height="25.3255" fill="white" transform="translate(0.696655 0.915894)"/>
</clipPath>
</defs>
</svg>
