<svg width="20" height="21" viewBox="0 0 20 21" fill="none" xmlns="http://www.w3.org/2000/svg">
<path fill-rule="evenodd" clip-rule="evenodd" d="M6 0.183594C4.49781 0.183594 3.0883 0.486148 2.01736 1.02169C1.00784 1.52652 0 2.40968 0 3.68359V14.6836C0 15.9575 1.00784 16.8407 2.01736 17.3455C3.0883 17.881 4.49781 18.1836 6 18.1836C6.83017 18.1836 7.62728 18.0914 8.35312 17.9208C8.73337 18.5492 9.36933 19.0214 10.0174 19.3455C11.0883 19.881 12.4978 20.1836 14 20.1836C15.5022 20.1836 16.9117 19.881 17.9826 19.3455C18.9922 18.8407 20 17.9575 20 16.6836V8.68359C20 7.40968 18.9922 6.52652 17.9826 6.02169C16.9117 5.48615 15.5022 5.18359 14 5.18359C13.3043 5.18359 12.6297 5.24845 12 5.37077V3.68359C12 2.40968 10.9922 1.52652 9.98264 1.02169C8.9117 0.486148 7.50219 0.183594 6 0.183594ZM2.91189 2.8105C3.65072 2.44103 4.74122 2.18359 6 2.18359C7.25878 2.18359 8.34928 2.44103 9.08811 2.8105C9.88399 3.20849 10 3.57452 10 3.68359C10 3.79266 9.88399 4.1587 9.08811 4.55669C8.34928 4.92616 7.25878 5.18359 6 5.18359C4.74122 5.18359 3.65072 4.92616 2.91189 4.55669C2.11601 4.1587 2 3.79266 2 3.68359C2 3.57452 2.11601 3.20849 2.91189 2.8105ZM2 7.68359V6.33678L2.01736 6.3455C3.0883 6.88104 4.49781 7.18359 6 7.18359C7.04397 7.18359 8.04317 7.03747 8.91508 6.76857C8.38386 7.26003 8 7.89739 8 8.68359V8.94851C7.41233 9.09639 6.73259 9.18359 6 9.18359C4.74122 9.18359 3.65072 8.92616 2.91189 8.55669C2.11601 8.1587 2 7.79266 2 7.68359ZM11.3391 7.62456C11.3475 7.62153 11.3559 7.61839 11.3642 7.61514C12.0678 7.35282 12.9796 7.18359 14 7.18359C15.2588 7.18359 16.3493 7.44103 17.0881 7.8105C17.884 8.20849 18 8.57452 18 8.68359C18 8.79266 17.884 9.1587 17.0881 9.55669C16.3493 9.92616 15.2588 10.1836 14 10.1836C12.7412 10.1836 11.6507 9.92616 10.9119 9.55669C10.116 9.1587 10 8.79266 10 8.68359C10 8.57452 10.116 8.20849 10.9119 7.8105C11.0431 7.7449 11.1858 7.68261 11.3391 7.62456ZM2 11.1836V10.3368L2.01736 10.3455C3.0883 10.881 4.49781 11.1836 6 11.1836C6.69742 11.1836 7.37181 11.1186 8 10.9966V12.4484C7.412 12.5964 6.73261 12.6836 6 12.6836C4.74122 12.6836 3.65072 12.4262 2.91189 12.0567C2.11601 11.6587 2 11.2927 2 11.1836ZM10 12.6836V11.3368L10.0174 11.3455C11.0883 11.881 12.4978 12.1836 14 12.1836C15.5022 12.1836 16.9117 11.881 17.9826 11.3455L18 11.3368V12.6836C18 12.7927 17.884 13.1587 17.0881 13.5567C16.3493 13.9262 15.2588 14.1836 14 14.1836C12.7412 14.1836 11.6507 13.9262 10.9119 13.5567C10.116 13.1587 10 12.7927 10 12.6836ZM2 14.6836V13.8368L2.01736 13.8455C3.0883 14.381 4.49781 14.6836 6 14.6836C6.69767 14.6836 7.37188 14.6185 8 14.4965V15.9484C7.412 16.0964 6.73261 16.1836 6 16.1836C4.74122 16.1836 3.65072 15.9262 2.91189 15.5567C2.11601 15.1587 2 14.7927 2 14.6836ZM10 16.6836V15.3368L10.0174 15.3455C11.0883 15.881 12.4978 16.1836 14 16.1836C15.5022 16.1836 16.9117 15.881 17.9826 15.3455L18 15.3368V16.6836C18 16.7927 17.884 17.1587 17.0881 17.5567C16.3493 17.9262 15.2588 18.1836 14 18.1836C12.7412 18.1836 11.6507 17.9262 10.9119 17.5567C10.116 17.1587 10 16.7927 10 16.6836Z" fill="#A3AEBD"/>
</svg>
