<svg width="25" height="25" viewBox="0 0 25 25" fill="none" xmlns="http://www.w3.org/2000/svg">
<path fill-rule="evenodd" clip-rule="evenodd" d="M8.5 2.18359C6.99781 2.18359 5.5883 2.48615 4.51736 3.02169C3.50784 3.52652 2.5 4.40968 2.5 5.68359V16.6836C2.5 17.9575 3.50784 18.8407 4.51736 19.3455C5.5883 19.881 6.99781 20.1836 8.5 20.1836C9.33017 20.1836 10.1273 20.0914 10.8531 19.9208C11.2334 20.5492 11.8693 21.0214 12.5174 21.3455C13.5883 21.881 14.9978 22.1836 16.5 22.1836C18.0022 22.1836 19.4117 21.881 20.4826 21.3455C21.4922 20.8407 22.5 19.9575 22.5 18.6836V10.6836C22.5 9.40968 21.4922 8.52652 20.4826 8.02169C19.4117 7.48615 18.0022 7.18359 16.5 7.18359C15.8043 7.18359 15.1297 7.24845 14.5 7.37077V5.68359C14.5 4.40968 13.4922 3.52652 12.4826 3.02169C11.4117 2.48615 10.0022 2.18359 8.5 2.18359ZM5.41189 4.8105C6.15072 4.44103 7.24122 4.18359 8.5 4.18359C9.75878 4.18359 10.8493 4.44103 11.5881 4.8105C12.384 5.20849 12.5 5.57452 12.5 5.68359C12.5 5.79266 12.384 6.1587 11.5881 6.55669C10.8493 6.92616 9.75878 7.18359 8.5 7.18359C7.24122 7.18359 6.15072 6.92616 5.41189 6.55669C4.61601 6.1587 4.5 5.79266 4.5 5.68359C4.5 5.57452 4.61601 5.20849 5.41189 4.8105ZM4.5 9.68359V8.33678L4.51736 8.3455C5.5883 8.88104 6.99781 9.18359 8.5 9.18359C9.54397 9.18359 10.5432 9.03747 11.4151 8.76857C10.8839 9.26003 10.5 9.89739 10.5 10.6836V10.9485C9.91233 11.0964 9.23259 11.1836 8.5 11.1836C7.24122 11.1836 6.15072 10.9262 5.41189 10.5567C4.61601 10.1587 4.5 9.79266 4.5 9.68359ZM13.8391 9.62456C13.8475 9.62153 13.8559 9.61839 13.8642 9.61514C14.5678 9.35282 15.4796 9.18359 16.5 9.18359C17.7588 9.18359 18.8493 9.44103 19.5881 9.8105C20.384 10.2085 20.5 10.5745 20.5 10.6836C20.5 10.7927 20.384 11.1587 19.5881 11.5567C18.8493 11.9262 17.7588 12.1836 16.5 12.1836C15.2412 12.1836 14.1507 11.9262 13.4119 11.5567C12.616 11.1587 12.5 10.7927 12.5 10.6836C12.5 10.5745 12.616 10.2085 13.4119 9.8105C13.5431 9.7449 13.6858 9.68261 13.8391 9.62456ZM4.5 13.1836V12.3368L4.51736 12.3455C5.5883 12.881 6.99781 13.1836 8.5 13.1836C9.19742 13.1836 9.87181 13.1186 10.5 12.9966V14.4484C9.912 14.5964 9.23261 14.6836 8.5 14.6836C7.24122 14.6836 6.15072 14.4262 5.41189 14.0567C4.61601 13.6587 4.5 13.2927 4.5 13.1836ZM12.5 14.6836V13.3368L12.5174 13.3455C13.5883 13.881 14.9978 14.1836 16.5 14.1836C18.0022 14.1836 19.4117 13.881 20.4826 13.3455L20.5 13.3368V14.6836C20.5 14.7927 20.384 15.1587 19.5881 15.5567C18.8493 15.9262 17.7588 16.1836 16.5 16.1836C15.2412 16.1836 14.1507 15.9262 13.4119 15.5567C12.616 15.1587 12.5 14.7927 12.5 14.6836ZM4.5 16.6836V15.8368L4.51736 15.8455C5.5883 16.381 6.99781 16.6836 8.5 16.6836C9.19767 16.6836 9.87188 16.6185 10.5 16.4965V17.9484C9.912 18.0964 9.23261 18.1836 8.5 18.1836C7.24122 18.1836 6.15072 17.9262 5.41189 17.5567C4.61601 17.1587 4.5 16.7927 4.5 16.6836ZM12.5 18.6836V17.3368L12.5174 17.3455C13.5883 17.881 14.9978 18.1836 16.5 18.1836C18.0022 18.1836 19.4117 17.881 20.4826 17.3455L20.5 17.3368V18.6836C20.5 18.7927 20.384 19.1587 19.5881 19.5567C18.8493 19.9262 17.7588 20.1836 16.5 20.1836C15.2412 20.1836 14.1507 19.9262 13.4119 19.5567C12.616 19.1587 12.5 18.7927 12.5 18.6836Z" fill="#003FDD"/>
</svg>
