<svg width="99" height="100" viewBox="0 0 99 100" fill="none" xmlns="http://www.w3.org/2000/svg">
<g id="&#240;&#159;&#166;&#134; emoji &#34;party popper&#34;">
<path id="Vector" d="M2.36989 99.3938C4.26161 101.444 12.0535 97.8688 18.2036 95.002C22.8121 92.8603 41.2542 85.2935 50.4211 81.3684C52.8962 80.31 56.4963 78.9266 59.088 75.5182C61.3881 72.4848 67.4882 59.6011 55.2046 46.5508C42.7376 33.3005 29.8956 36.9589 25.0955 40.359C22.2704 42.359 19.9703 46.8675 18.937 49.1592C14.5702 58.8428 8.34505 76.5849 5.81165 83.5601C3.95327 88.7019 0.494847 97.3604 2.36989 99.3938Z" fill="#FFC107"/>
<g id="Group">
<path id="Vector_2" d="M17.7036 52.0767C17.8202 53.5268 18.1119 55.8852 19.1119 60.4269C19.7953 63.5437 20.912 66.8104 21.8203 68.9688C24.5454 75.4606 28.3705 78.0774 32.2456 80.1774C38.8291 83.7442 43.3042 84.4109 43.3042 84.4109L37.9374 86.6026C37.9374 86.6026 34.6873 85.9276 30.2539 83.7442C26.0288 81.6608 21.6287 78.1357 18.4119 71.2355C17.0202 68.2438 16.2119 65.3437 15.7452 63.0437C15.1702 60.1936 15.0785 58.5769 15.0785 58.5769L17.7036 52.0767Z" fill="#FF8F00"/>
<path id="Vector_3" d="M11.1117 68.9773C11.1117 68.9773 11.7783 74.3858 16.2451 81.2109C21.4786 89.1945 28.7871 90.5028 28.7871 90.5028L23.9286 92.5029C23.9286 92.5029 18.5035 90.8445 13.345 83.8027C10.1283 79.4109 9.22827 74.1608 9.22827 74.1608L11.1117 68.9773Z" fill="#FF8F00"/>
<path id="Vector_4" d="M6.4866 81.7944C6.4866 81.7944 7.70329 86.4612 10.37 89.9446C13.5451 94.103 17.5869 95.3114 17.5869 95.3114L13.8618 96.9615C13.8618 96.9615 11.0367 96.3698 7.94497 92.453C5.59491 89.4779 4.92822 86.0612 4.92822 86.0612L6.4866 81.7944Z" fill="#FF8F00"/>
</g>
<path id="Vector_5" opacity="0.44" d="M4.4615 93.6444C4.29483 93.2694 4.29483 92.8444 4.46984 92.4777L25.6954 48.46L29.1871 61.5853L6.85323 93.8444C6.25322 94.7445 4.90318 94.6278 4.4615 93.6444Z" fill="#FFFDE7"/>
<path id="Vector_6" d="M30.8706 65.9929C40.7875 77.5932 52.0795 76.1432 55.8379 73.2098C59.6047 70.268 62.5798 60.1594 52.7045 48.7508C42.3542 36.8005 30.6373 40.2089 27.9289 42.7923C25.2205 45.3757 21.7704 55.351 30.8706 65.9929Z" fill="url(#paint0_linear_200_2374)"/>
<path id="Vector_7" d="M64.9298 70.768C61.3131 67.7346 59.388 68.2763 56.8046 69.3513C53.4712 70.7347 48.2294 71.7597 41.1125 69.3513L43.2543 64.1929C47.4794 65.6179 50.5378 64.9262 53.1795 63.3678C56.5796 61.3678 61.2297 58.6261 68.4632 64.7012C71.48 67.2346 74.5717 68.918 76.8385 68.1513C78.4885 67.6013 79.3635 65.1429 79.8052 63.1845C79.8469 63.0095 79.9135 62.5095 79.9635 62.0678C80.3635 59.0094 81.0302 52.4092 85.947 49.0341C91.2055 45.4257 96.7306 45.4257 96.7306 45.4257L97.7306 55.3593C95.1889 54.9843 93.4222 55.501 91.9305 56.326C86.3137 59.4511 91.2055 71.4514 82.4636 75.4848C74.055 79.3932 67.1799 72.6514 64.9298 70.768Z" fill="#03A9F4"/>
<path id="Vector_8" d="M33.9956 58.1015L30.3788 54.8597C37.0207 47.4429 35.2706 41.9927 33.9956 38.026C33.7373 37.2259 33.4956 36.4676 33.3372 35.7426C32.7706 33.1758 32.6539 30.9424 32.8289 28.9924C30.2788 25.8173 29.1538 22.4922 29.0788 22.2672C27.5288 17.5754 28.6955 13.0003 31.3705 8.70855C36.779 0 46.5709 0 46.5709 0L49.8377 8.74189C47.3543 8.64188 39.2124 8.76689 36.7123 12.7087C33.5539 17.6754 35.629 20.7422 35.779 21.0922C36.3873 20.3005 37.004 19.6672 37.554 19.1755C41.5458 15.6337 45.0125 15.1254 47.2209 15.3254C49.7043 15.5504 51.9544 16.8004 53.5628 18.8505C55.3211 21.1005 56.0462 24.0256 55.4878 26.684C54.9461 29.2757 53.2211 31.4675 50.6294 32.8592C46.1042 35.2926 42.3375 34.9592 39.8124 34.1175C39.8291 34.1759 39.8374 34.2425 39.8541 34.3009C39.9457 34.7175 40.1291 35.3009 40.3458 35.9759C41.8208 40.5427 44.5625 47.7929 33.9956 58.1015ZM40.1208 26.8257C40.6041 27.1757 41.1124 27.4674 41.6375 27.6757C43.3875 28.3757 45.2959 28.1424 47.4626 26.9757C48.7376 26.2923 48.8876 25.559 48.9376 25.3173C49.0876 24.5923 48.8376 23.6673 48.296 22.9756C47.8209 22.3672 47.2709 22.0506 46.6126 21.9839C45.3626 21.8756 43.6708 22.6672 41.9791 24.1756C41.1708 24.9006 40.5541 25.7923 40.1208 26.8257Z" fill="#F44336"/>
<path id="Vector_9" d="M48.471 59.4594L43.2959 59.3177C43.2959 59.3177 45.7543 45.4341 53.7128 43.1007C55.2045 42.6673 56.8379 42.2256 58.4796 41.984C59.4546 41.834 60.9963 41.609 61.7547 41.3256C61.9297 40.0173 61.3797 38.3505 60.763 36.4588C60.2797 34.9921 59.7796 33.4838 59.513 31.8337C58.9963 28.617 59.8546 25.7752 61.9297 23.8168C64.4631 21.4418 68.5549 20.6834 73.1717 21.7335C75.8051 22.3335 77.7468 23.6252 79.4551 24.7585C81.8969 26.3836 83.3219 27.2086 86.3053 25.2002C89.9137 22.7668 85.197 13.2416 82.6886 7.74144L92.0471 3.84134C93.3055 6.59141 99.3806 20.7418 95.3722 28.817C94.0222 31.5337 91.6971 33.3338 88.647 34.0088C82.0135 35.4921 78.1301 32.9087 75.2967 31.0254C73.955 30.1337 72.78 29.4337 71.5049 29.067C62.6464 26.5419 75.0134 39.5756 69.2215 45.4341C65.7465 48.9425 57.2546 49.8675 56.7046 50.0008C51.2378 51.3175 48.471 59.4594 48.471 59.4594Z" fill="#F48FB1"/>
<path id="Vector_10" d="M32.8206 28.9928C32.6623 30.8261 32.5873 31.9178 33.0623 34.3012C35.354 35.9846 40.3458 35.9846 40.3458 35.9846C40.1291 35.3096 39.9375 34.7262 39.8541 34.3096C39.8375 34.2512 39.8291 34.1846 39.8125 34.1262C34.7373 31.5928 32.8206 28.9928 32.8206 28.9928Z" fill="#C92B27"/>
<path id="Vector_11" d="M22.4371 37.2014L13.8202 32.9763L18.112 26.7762L24.8705 31.2513L22.4371 37.2014Z" fill="#FFC107"/>
<path id="Vector_12" d="M9.73669 25.5008C5.33658 24.9091 0.853129 21.1757 0.36145 20.7507L4.68656 15.6755C5.99493 16.7839 8.77 18.6423 10.6284 18.8923L9.73669 25.5008Z" fill="#FB8C00"/>
<path id="Vector_13" d="M17.5035 14.3919L11.17 12.3168C11.8951 10.1001 12.0867 7.70836 11.7117 5.39997L18.2952 4.34161C18.8369 7.6917 18.5619 11.1668 17.5035 14.3919Z" fill="#03A9F4"/>
<path id="Vector_14" d="M57.057 9.43759L63.5698 8.01289L65.4504 16.6098L58.9376 18.0345L57.057 9.43759Z" fill="#FB8C00"/>
<path id="Vector_15" d="M73.2132 11.4755L68.6298 6.63375C71.0298 4.35869 71.5798 1.38361 71.5798 1.35028L78.1633 2.42531C78.08 2.95032 77.2383 7.66711 73.2132 11.4755Z" fill="#FFC107"/>
<path id="Vector_16" d="M75.7603 37.1519L81.5829 35.3322L83.5716 41.6957L77.749 43.5154L75.7603 37.1519Z" fill="#FB8C00"/>
<path id="Vector_17" d="M77.4551 90.8602L70.83 90.0768C71.1133 87.7185 69.3549 84.8267 68.8716 84.185L74.2051 80.1849C74.6051 80.7099 78.0802 85.5184 77.4551 90.8602Z" fill="#F44336"/>
<path id="Vector_18" d="M96.4723 82.4104C93.9805 82.0353 91.4305 81.8853 88.9137 81.977L88.6887 75.3102C91.6138 75.2102 94.5722 75.3768 97.4639 75.8185L96.4723 82.4104Z" fill="#FB8C00"/>
<path id="Vector_19" d="M87.5084 91.5878L92.1925 86.8436L98.6386 93.2082L93.9545 97.9523L87.5084 91.5878Z" fill="#F48FB1"/>
<path id="Vector_20" d="M73.7458 49.444L78.5625 54.9514L73.0551 59.7681L68.2385 54.2607L73.7458 49.444Z" fill="#F44336"/>
</g>
<defs>
<linearGradient id="paint0_linear_200_2374" x1="58.1499" y1="48.1996" x2="33.3432" y2="63.0836" gradientUnits="userSpaceOnUse">
<stop offset="0.0235" stop-color="#8F4700"/>
<stop offset="1" stop-color="#703E2D"/>
</linearGradient>
</defs>
</svg>
