<svg width="25" height="24" viewBox="0 0 25 24" fill="none" xmlns="http://www.w3.org/2000/svg">
<path d="M8.5 7V5C8.5 4.46957 8.71071 3.96086 9.08579 3.58579C9.46086 3.21071 9.96957 3 10.5 3H14.5C15.0304 3 15.5391 3.21071 15.9142 3.58579C16.2893 3.96086 16.5 4.46957 16.5 5V7M12.5 12V12.01M3.5 9C3.5 8.46957 3.71071 7.96086 4.08579 7.58579C4.46086 7.21071 4.96957 7 5.5 7H19.5C20.0304 7 20.5391 7.21071 20.9142 7.58579C21.2893 7.96086 21.5 8.46957 21.5 9V18C21.5 18.5304 21.2893 19.0391 20.9142 19.4142C20.5391 19.7893 20.0304 20 19.5 20H5.5C4.96957 20 4.46086 19.7893 4.08579 19.4142C3.71071 19.0391 3.5 18.5304 3.5 18V9Z" stroke="#003FDD" stroke-width="2" stroke-linecap="round" stroke-linejoin="round"/>
<path d="M3.5 13C6.29158 14.4067 9.37403 15.1394 12.5 15.1394C15.626 15.1394 18.7084 14.4067 21.5 13" stroke="#003FDD" stroke-width="2" stroke-linecap="round" stroke-linejoin="round"/>
</svg>
