<svg width="25" height="24" viewBox="0 0 25 24" fill="none" xmlns="http://www.w3.org/2000/svg">
<path d="M9 8H7C4.51472 8 2.5 10.0147 2.5 12.5C2.5 14.9853 4.51472 17 7 17C8.2379 17 9.35905 16.5002 10.1727 15.6913C10.9925 14.8763 12.5 12.5 12.5 12.5C12.5 12.5 14.0028 10.1343 14.816 9.32005C15.6305 8.5045 16.7564 8 18 8C20.4853 8 22.5 10.0147 22.5 12.5C22.5 14.9853 20.4853 17 18 17H16" stroke="#FF6700" stroke-width="2" stroke-linecap="round" stroke-linejoin="round"/>
<path d="M18 15L16 17L18 19" stroke="#FF6700" stroke-width="2" stroke-linecap="round" stroke-linejoin="round"/>
<path d="M7 6L9 8L7 10" stroke="#FF6700" stroke-width="2" stroke-linecap="round" stroke-linejoin="round"/>
</svg>
