<svg width="13" height="12" viewBox="0 0 13 12" fill="none" xmlns="http://www.w3.org/2000/svg">
<g id="evaDiagonalArrowRightUpOutline0">
<g id="evaDiagonalArrowRightUpOutline1">
<path id="evaDiagonalArrowRightUpOutline2" d="M12.143 1.05C12.143 0.784784 12.0376 0.530429 11.8501 0.342893C11.6626 0.155357 11.4082 0.0500002 11.143 0.0500002L3.14301 0C2.87779 0 2.62344 0.105357 2.4359 0.292893C2.24836 0.48043 2.14301 0.734784 2.14301 1C2.14301 1.26522 2.24836 1.51957 2.4359 1.70711C2.62344 1.89464 2.87779 2 3.14301 2H8.70301L0.433005 10.29C0.339277 10.383 0.264883 10.4936 0.214114 10.6154C0.163346 10.7373 0.137207 10.868 0.137207 11C0.137207 11.132 0.163346 11.2627 0.214114 11.3846C0.264883 11.5064 0.339277 11.617 0.433005 11.71C0.525968 11.8037 0.636569 11.8781 0.758429 11.9289C0.880288 11.9797 1.01099 12.0058 1.14301 12.0058C1.27502 12.0058 1.40572 11.9797 1.52758 11.9289C1.64944 11.8781 1.76004 11.8037 1.85301 11.71L10.143 3.42V9C10.143 9.26522 10.2484 9.51957 10.4359 9.70711C10.6234 9.89464 10.8778 10 11.143 10C11.4082 10 11.6626 9.89464 11.8501 9.70711C12.0376 9.51957 12.143 9.26522 12.143 9V1.05Z" fill="#DC2626"/>
</g>
</g>
</svg>
