<svg width="24" height="25" viewBox="0 0 24 25" fill="none" xmlns="http://www.w3.org/2000/svg">
<path d="M16 11.1836C16.2833 11.1836 16.521 11.0876 16.713 10.8956C16.905 10.7036 17.0007 10.4663 17 10.1836C17 9.90026 16.904 9.66259 16.712 9.47059C16.52 9.27859 16.2827 9.18293 16 9.18359C15.7167 9.18359 15.479 9.27959 15.287 9.47159C15.095 9.66359 14.9993 9.90093 15 10.1836C15 10.4669 15.096 10.7046 15.288 10.8966C15.48 11.0886 15.7173 11.1843 16 11.1836ZM8 9.18359H13V7.18359H8V9.18359ZM4.5 21.1836C3.93333 19.2836 3.375 17.3876 2.825 15.4956C2.275 13.6036 2 11.6663 2 9.68359C2 8.15026 2.53333 6.85026 3.6 5.78359C4.66667 4.71693 5.96667 4.18359 7.5 4.18359H12.5C12.9833 3.55026 13.571 3.05859 14.263 2.70859C14.955 2.35859 15.7007 2.18359 16.5 2.18359C16.9167 2.18359 17.271 2.32959 17.563 2.62159C17.855 2.91359 18.0007 3.26759 18 3.68359C18 3.78359 17.9873 3.88359 17.962 3.98359C17.9367 4.08359 17.9077 4.17526 17.875 4.25859C17.8083 4.44193 17.7457 4.62959 17.687 4.82159C17.6283 5.01359 17.5827 5.20926 17.55 5.40859L19.825 7.68359H22V14.6586L19.175 15.5836L17.5 21.1836H12V19.1836H10V21.1836H4.5ZM6 19.1836H8V17.1836H14V19.1836H16L17.55 14.0336L20 13.2086V9.68359H19L15.5 6.18359C15.5 5.85026 15.521 5.52926 15.563 5.22059C15.605 4.91193 15.6673 4.59959 15.75 4.28359C15.2667 4.41693 14.8417 4.64626 14.475 4.97159C14.1083 5.29693 13.8417 5.70093 13.675 6.18359H7.5C6.53333 6.18359 5.70833 6.52526 5.025 7.20859C4.34167 7.89193 4 8.71693 4 9.68359C4 11.3169 4.225 12.9129 4.675 14.4716C5.125 16.0303 5.56667 17.6009 6 19.1836Z" fill="#003FDD"/>
</svg>
