<svg width="25" height="25" viewBox="0 0 25 25" fill="none" xmlns="http://www.w3.org/2000/svg">
<path d="M22.1887 14.1087L20.8987 13.1087C20.7439 12.9987 20.6177 12.8532 20.5306 12.6845C20.4435 12.5157 20.3981 12.3286 20.3981 12.1387C20.3981 11.9488 20.4435 11.7616 20.5306 11.5929C20.6177 11.4241 20.7439 11.2787 20.8987 11.1687L22.1887 10.1687C22.3638 10.043 22.4936 9.86409 22.5587 9.65866C22.6266 9.45415 22.6266 9.23318 22.5587 9.02866C22.0936 7.49612 21.2789 6.09257 20.1787 4.92866C20.0363 4.77049 19.8471 4.6619 19.6387 4.61866C19.4232 4.57639 19.2 4.60081 18.9987 4.68866L17.5387 5.33866C17.3244 5.43047 17.0884 5.45947 16.8582 5.42229C16.6281 5.38511 16.4132 5.28328 16.2387 5.12866C16.0248 4.9239 15.8872 4.65225 15.8487 4.35866L15.6687 2.74866C15.6412 2.55156 15.5499 2.3689 15.4087 2.22866C15.2687 2.06064 15.074 1.94734 14.8587 1.90866C14.0944 1.73136 13.3132 1.63748 12.5287 1.62866C11.7312 1.64055 10.937 1.73438 10.1587 1.90866C9.94542 1.9526 9.75231 2.06496 9.60871 2.22866C9.46127 2.38857 9.36999 2.5922 9.34871 2.80866L9.16871 4.41866C9.15074 4.60536 9.08534 4.78436 8.97871 4.93866C8.87311 5.09784 8.73296 5.23115 8.56871 5.32866C8.40678 5.42224 8.22537 5.477 8.03871 5.48866C7.84777 5.49866 7.6569 5.46798 7.47871 5.39866L5.99871 4.74866C5.81367 4.66609 5.60792 4.64168 5.40871 4.67866C5.2003 4.7219 5.01113 4.83049 4.86871 4.98866C3.74373 6.14751 2.90182 7.5507 2.40871 9.08866C2.35864 9.29568 2.35864 9.51165 2.40871 9.71866C2.4851 9.92366 2.62089 10.1012 2.79871 10.2287L4.08871 11.2287C4.24744 11.333 4.37523 11.478 4.45871 11.6487C4.54633 11.8186 4.59097 12.0075 4.58871 12.1987C4.59184 12.3868 4.5471 12.5726 4.45871 12.7387C4.37947 12.9147 4.25096 13.064 4.08871 13.1687L2.79871 14.1687C2.6301 14.2846 2.49547 14.4434 2.40871 14.6287C2.35856 14.839 2.35856 15.0583 2.40871 15.2687C2.88366 16.7991 3.701 18.2012 4.79871 19.3687C4.94135 19.5393 5.13678 19.6574 5.35411 19.7045C5.57143 19.7516 5.79825 19.7249 5.99871 19.6287L7.47871 18.9787C7.65379 18.8981 7.84657 18.8637 8.03871 18.8787C8.22537 18.8903 8.40678 18.9451 8.56871 19.0387C8.73039 19.1353 8.87005 19.2648 8.97871 19.4187C9.07728 19.5806 9.14192 19.761 9.16871 19.9487L9.34871 21.5587C9.3616 21.7723 9.45024 21.9744 9.59871 22.1287C9.73563 22.2924 9.92135 22.408 10.1287 22.4587C10.9091 22.6405 11.7074 22.7344 12.5087 22.7387C13.3133 22.735 14.115 22.6411 14.8987 22.4587C15.1024 22.4061 15.2844 22.2906 15.4187 22.1287C15.5701 21.9754 15.6622 21.7734 15.6787 21.5587L15.8587 19.9487C15.8849 19.6652 16.0127 19.4008 16.2186 19.2042C16.4244 19.0075 16.6944 18.8919 16.9787 18.8787C17.1731 18.8642 17.3682 18.895 17.5487 18.9687L19.0287 19.6187C19.2214 19.7119 19.4401 19.7366 19.6487 19.6887C19.8571 19.6454 20.0463 19.5368 20.1887 19.3787C21.2889 18.2148 22.1036 16.8112 22.5687 15.2787C22.6448 15.0692 22.6487 14.8403 22.5799 14.6283C22.5111 14.4163 22.3734 14.2334 22.1887 14.1087ZM19.1887 17.7387L18.1887 17.3087C17.758 17.119 17.2887 17.0334 16.8187 17.0587C16.351 17.0904 15.8964 17.2271 15.4887 17.4587C14.8575 17.831 14.3844 18.4215 14.1587 19.1187C14.0943 19.3135 14.0508 19.5146 14.0287 19.7187L13.9187 20.7887C12.9528 20.9587 11.9646 20.9587 10.9987 20.7887L10.8787 19.7187C10.8226 19.2568 10.6656 18.813 10.4187 18.4187C10.1616 18.017 9.82039 17.6758 9.41871 17.4187C9.01307 17.1857 8.55856 17.0508 8.09149 17.0247C7.62442 16.9987 7.15774 17.0822 6.72871 17.2687L5.72871 17.7087C5.09853 16.9567 4.60444 16.1005 4.26871 15.1787L5.19871 14.6287C5.57323 14.3461 5.88058 13.9841 6.09871 13.5687C6.30971 13.1499 6.41962 12.6876 6.41962 12.2187C6.41962 11.7498 6.30971 11.2874 6.09871 10.8687C5.88058 10.4533 5.57323 10.0913 5.19871 9.80866L4.33871 9.16866C4.67245 8.24283 5.16667 7.38303 5.79871 6.62866L6.79871 7.05866C7.23027 7.24488 7.69955 7.32709 8.16871 7.29866C8.63951 7.27397 9.09819 7.14048 9.50871 6.90866C9.91039 6.65151 10.2516 6.31034 10.5087 5.90866C10.7423 5.51783 10.889 5.08126 10.9387 4.62866L11.0587 3.55866C11.545 3.48064 12.0363 3.4372 12.5287 3.42866C13.0145 3.4381 13.499 3.48154 13.9787 3.55866L14.0887 4.62866C14.1762 5.36368 14.5324 6.04038 15.0887 6.52866C15.5173 6.9111 16.0467 7.16246 16.6139 7.25287C17.1812 7.34328 17.7625 7.26893 18.2887 7.03866L19.2887 6.60866C19.9187 7.35701 20.4129 8.20988 20.7487 9.12866L19.8787 9.76866C19.5029 10.0481 19.1978 10.4116 18.9877 10.83C18.7775 11.2485 18.6683 11.7104 18.6687 12.1787C18.6727 12.647 18.7821 13.1084 18.9887 13.5287C19.179 13.9586 19.4707 14.3361 19.8387 14.6287L20.6987 15.2687C20.3525 16.1695 19.8554 17.0047 19.2287 17.7387H19.1887Z" fill="#A3AEBD"/>
<path d="M15.4087 9.26869C14.8367 8.68922 14.104 8.29466 13.3053 8.136C12.5067 7.97734 11.6788 8.06188 10.9287 8.37869C10.4307 8.58845 9.97963 8.89552 9.60185 9.28188C9.22408 9.66824 8.92723 10.1261 8.72871 10.6287C8.5169 11.125 8.40771 11.6591 8.40771 12.1987C8.40771 12.7383 8.5169 13.2724 8.72871 13.7687C8.9317 14.2666 9.2316 14.7193 9.61098 15.1004C9.99036 15.4815 10.4417 15.7834 10.9387 15.9887C11.821 16.3714 12.8097 16.4318 13.732 16.1593C14.6543 15.8868 15.4514 15.2988 15.9841 14.4981C16.5167 13.6973 16.7509 12.7349 16.6457 11.7789C16.5405 10.823 16.1027 9.93446 15.4087 9.26869ZM12.4987 9.84869C12.8077 9.84842 13.1136 9.90961 13.3987 10.0287C13.678 10.1465 13.9325 10.3161 14.1487 10.5287C14.3645 10.7422 14.5346 10.9974 14.6487 11.2787C14.8264 11.7023 14.8737 12.1693 14.7846 12.62C14.6956 13.0706 14.4742 13.4845 14.1487 13.8087C13.7058 14.2323 13.1166 14.4687 12.5037 14.4687C11.8908 14.4687 11.3016 14.2323 10.8587 13.8087C10.6424 13.594 10.4708 13.3385 10.3541 13.0569C10.2374 12.7754 10.1777 12.4735 10.1787 12.1687C10.199 11.8602 10.277 11.5584 10.4087 11.2787C10.5301 10.9989 10.7031 10.7445 10.9187 10.5287C11.1349 10.3161 11.3894 10.1465 11.6687 10.0287C11.9348 9.91601 12.2198 9.85492 12.5087 9.84869H12.4987Z" fill="#A3AEBD"/>
</svg>
