<svg width="24" height="25" viewBox="0 0 24 25" fill="none" xmlns="http://www.w3.org/2000/svg">
<path d="M21.6887 14.1089L20.3987 13.1089C20.2439 12.9989 20.1177 12.8534 20.0306 12.6847C19.9435 12.5159 19.8981 12.3288 19.8981 12.1389C19.8981 11.949 19.9435 11.7619 20.0306 11.5931C20.1177 11.4244 20.2439 11.2789 20.3987 11.1689L21.6887 10.1689C21.8638 10.0432 21.9936 9.86433 22.0587 9.65891C22.1266 9.45439 22.1266 9.23342 22.0587 9.02891C21.5936 7.49636 20.7789 6.09281 19.6787 4.92891C19.5363 4.77074 19.3471 4.66214 19.1387 4.61891C18.9232 4.57663 18.7 4.60105 18.4987 4.68891L17.0387 5.33891C16.8244 5.43071 16.5884 5.45971 16.3582 5.42253C16.1281 5.38535 15.9132 5.28352 15.7387 5.12891C15.5248 4.92415 15.3872 4.6525 15.3487 4.35891L15.1687 2.74891C15.1412 2.55181 15.0499 2.36915 14.9087 2.22891C14.7687 2.06089 14.574 1.94758 14.3587 1.90891C13.5944 1.73161 12.8132 1.63772 12.0287 1.62891C11.2312 1.64079 10.437 1.73462 9.65871 1.90891C9.44542 1.95284 9.25231 2.0652 9.10871 2.22891C8.96127 2.38882 8.86999 2.59244 8.84871 2.80891L8.66871 4.41891C8.65074 4.6056 8.58534 4.78461 8.47871 4.93891C8.37311 5.09809 8.23296 5.23139 8.06871 5.32891C7.90678 5.42248 7.72537 5.47725 7.53871 5.48891C7.34777 5.4989 7.1569 5.46822 6.97871 5.39891L5.49871 4.74891C5.31367 4.66634 5.10792 4.64193 4.90871 4.67891C4.7003 4.72214 4.51113 4.83074 4.36871 4.98891C3.24373 6.14776 2.40182 7.55094 1.90871 9.08891C1.85864 9.29592 1.85864 9.51189 1.90871 9.71891C1.9851 9.92391 2.12089 10.1015 2.29871 10.2289L3.58871 11.2289C3.74744 11.3332 3.87523 11.4783 3.95871 11.6489C4.04633 11.8189 4.09097 12.0077 4.08871 12.1989C4.09184 12.387 4.0471 12.5728 3.95871 12.7389C3.87947 12.9149 3.75096 13.0643 3.58871 13.1689L2.29871 14.1689C2.1301 14.2848 1.99547 14.4436 1.90871 14.6289C1.85856 14.8393 1.85856 15.0585 1.90871 15.2689C2.38366 16.7993 3.201 18.2015 4.29871 19.3689C4.44135 19.5395 4.63678 19.6577 4.85411 19.7048C5.07143 19.7519 5.29825 19.7252 5.49871 19.6289L6.97871 18.9789C7.15379 18.8984 7.34657 18.8639 7.53871 18.8789C7.72537 18.8906 7.90678 18.9453 8.06871 19.0389C8.23039 19.1356 8.37005 19.265 8.47871 19.4189C8.57728 19.5809 8.64192 19.7612 8.66871 19.9489L8.84871 21.5589C8.8616 21.7726 8.95024 21.9747 9.09871 22.1289C9.23563 22.2927 9.42135 22.4083 9.62871 22.4589C10.4091 22.6407 11.2074 22.7347 12.0087 22.7389C12.8133 22.7352 13.615 22.6413 14.3987 22.4589C14.6024 22.4064 14.7844 22.2909 14.9187 22.1289C15.0701 21.9757 15.1622 21.7737 15.1787 21.5589L15.3587 19.9489C15.3849 19.6655 15.5127 19.401 15.7186 19.2044C15.9244 19.0078 16.1944 18.8922 16.4787 18.8789C16.6731 18.8644 16.8682 18.8952 17.0487 18.9689L18.5287 19.6189C18.7214 19.7121 18.9401 19.7368 19.1487 19.6889C19.3571 19.6457 19.5463 19.5371 19.6887 19.3789C20.7889 18.215 21.6036 16.8114 22.0687 15.2789C22.1448 15.0694 22.1487 14.8405 22.0799 14.6286C22.0111 14.4166 21.8734 14.2337 21.6887 14.1089ZM18.6887 17.7389L17.6887 17.3089C17.258 17.1193 16.7887 17.0336 16.3187 17.0589C15.851 17.0906 15.3964 17.2273 14.9887 17.4589C14.3575 17.8312 13.8844 18.4217 13.6587 19.1189C13.5943 19.3138 13.5508 19.5149 13.5287 19.7189L13.4187 20.7889C12.4528 20.959 11.4646 20.959 10.4987 20.7889L10.3787 19.7189C10.3226 19.2571 10.1656 18.8132 9.91871 18.4189C9.66156 18.0172 9.32039 17.6761 8.91871 17.4189C8.51307 17.1859 8.05856 17.051 7.59149 17.025C7.12442 16.9989 6.65774 17.0824 6.22871 17.2689L5.22871 17.7089C4.59853 16.957 4.10444 16.1008 3.76871 15.1789L4.69871 14.6289C5.07323 14.3463 5.38058 13.9843 5.59871 13.5689C5.80971 13.1502 5.91962 12.6878 5.91962 12.2189C5.91962 11.75 5.80971 11.2876 5.59871 10.8689C5.38058 10.4535 5.07323 10.0915 4.69871 9.80891L3.83871 9.16891C4.17245 8.24308 4.66667 7.38327 5.29871 6.62891L6.29871 7.05891C6.73027 7.24512 7.19955 7.32733 7.66871 7.29891C8.13951 7.27422 8.59819 7.14072 9.00871 6.90891C9.41039 6.65175 9.75156 6.31059 10.0087 5.90891C10.2423 5.51807 10.389 5.0815 10.4387 4.62891L10.5587 3.55891C11.045 3.48089 11.5363 3.43744 12.0287 3.42891C12.5145 3.43835 12.999 3.48179 13.4787 3.55891L13.5887 4.62891C13.6762 5.36392 14.0324 6.04063 14.5887 6.52891C15.0173 6.91135 15.5467 7.16271 16.1139 7.25311C16.6812 7.34352 17.2625 7.26917 17.7887 7.03891L18.7887 6.60891C19.4187 7.35725 19.9129 8.21013 20.2487 9.12891L19.3787 9.76891C19.0029 10.0483 18.6978 10.4118 18.4877 10.8303C18.2775 11.2488 18.1683 11.7106 18.1687 12.1789C18.1727 12.6472 18.2821 13.1086 18.4887 13.5289C18.679 13.9589 18.9707 14.3363 19.3387 14.6289L20.1987 15.2689C19.8525 16.1697 19.3554 17.005 18.7287 17.7389H18.6887Z" fill="#003FDD"/>
<path d="M14.9087 9.2693C14.3367 8.68983 13.604 8.29527 12.8053 8.13661C12.0067 7.97795 11.1788 8.06249 10.4287 8.3793C9.93073 8.58906 9.47963 8.89613 9.10185 9.28249C8.72408 9.66885 8.42723 10.1267 8.22871 10.6293C8.0169 11.1256 7.90771 11.6597 7.90771 12.1993C7.90771 12.7389 8.0169 13.273 8.22871 13.7693C8.4317 14.2673 8.7316 14.7199 9.11098 15.101C9.49036 15.4821 9.94167 15.7841 10.4387 15.9893C11.321 16.372 12.3097 16.4324 13.232 16.1599C14.1543 15.8874 14.9514 15.2994 15.4841 14.4987C16.0167 13.698 16.2509 12.7355 16.1457 11.7795C16.0405 10.8236 15.6027 9.93508 14.9087 9.2693ZM11.9987 9.8493C12.3077 9.84904 12.6136 9.91022 12.8987 10.0293C13.178 10.1471 13.4325 10.3168 13.6487 10.5293C13.8645 10.7428 14.0346 10.998 14.1487 11.2793C14.3264 11.7029 14.3737 12.1699 14.2846 12.6206C14.1956 13.0712 13.9742 13.4851 13.6487 13.8093C13.2058 14.2329 12.6166 14.4693 12.0037 14.4693C11.3908 14.4693 10.8016 14.2329 10.3587 13.8093C10.1424 13.5946 9.97082 13.3391 9.85409 13.0576C9.73735 12.776 9.67774 12.4741 9.67871 12.1693C9.69901 11.8609 9.77703 11.559 9.90871 11.2793C10.0301 10.9995 10.2031 10.7451 10.4187 10.5293C10.6349 10.3168 10.8894 10.1471 11.1687 10.0293C11.4348 9.91662 11.7198 9.85553 12.0087 9.8493H11.9987Z" fill="#003FDD"/>
</svg>
