<svg width="261" height="149" viewBox="0 0 261 149" fill="none" xmlns="http://www.w3.org/2000/svg">
<path d="M190.19 55.6037L190.19 55.6029C187.442 52.8549 185.277 49.6312 183.693 45.9578C182.085 42.2299 181.288 38.2585 181.286 34.0722L181.286 34.0709C181.286 29.8837 182.083 25.9114 183.693 22.1827C185.279 18.5103 187.443 15.2872 190.189 12.5396L190.19 12.5388C192.938 9.79086 196.161 7.62611 199.835 6.04203C203.563 4.43444 207.534 3.63733 211.72 3.63531L211.722 3.63531C215.909 3.63531 219.881 4.4326 223.61 6.04255C227.282 7.62823 230.505 9.79249 233.253 12.5381L233.254 12.5388C236.001 15.2865 238.167 18.5099 239.753 22.1827C241.363 25.9114 242.159 29.8838 242.157 34.0709L190.19 55.6037ZM190.19 55.6037C192.938 58.3493 196.161 60.5135 199.834 62.0992C203.562 63.709 207.534 64.5063 211.72 64.5064L190.19 55.6037ZM233.255 55.6022L233.254 55.6029C230.506 58.3506 227.283 60.5161 223.61 62.1019C219.881 63.7119 215.909 64.5083 211.722 64.5064L233.255 55.6022ZM233.255 55.6022C236 52.8545 238.164 49.6314 239.75 45.959C241.36 42.2308 242.157 38.2589 242.157 34.0722L233.255 55.6022Z" fill="#00BF55" stroke="white" stroke-width="5.70667"/>
<g style="mix-blend-mode:multiply" opacity="0.5">
<path d="M30.9461 62.6498V125.651C29.7911 124.867 28.4277 124.445 27.0313 124.442C25.3204 124.43 23.6657 125.052 22.3861 126.188C21.9492 126.603 21.5658 127.07 21.2448 127.58C21.2301 127.617 21.211 127.651 21.1877 127.683C21.0487 127.904 20.9229 128.132 20.8111 128.368C20.7968 128.412 20.7776 128.454 20.754 128.493C20.6376 128.762 20.5347 129.036 20.4458 129.315V129.452C20.3773 129.692 20.3317 129.931 20.286 130.183V130.411C20.2496 130.71 20.2306 131.011 20.229 131.312C20.2327 131.925 20.3132 132.535 20.4687 133.127H20.0692C19.9404 133.128 19.8132 133.155 19.6961 133.209C19.579 133.263 19.4748 133.341 19.3904 133.438C19.3061 133.536 19.2436 133.65 19.2071 133.773C19.1706 133.897 19.161 134.027 19.1789 134.154L19.3387 134.805C19.3744 134.951 19.4578 135.081 19.5756 135.174C19.6935 135.267 19.8391 135.318 19.9893 135.319H20.229L21.3703 143.308C21.4003 143.504 21.4996 143.684 21.6503 143.814C21.801 143.943 21.9932 144.015 22.1921 144.015H31.0945H17.9349C17.384 144.015 16.8556 144.234 16.4661 144.624C16.0765 145.013 15.8577 145.542 15.8577 146.093C15.8577 146.644 16.0765 147.172 16.4661 147.562C16.8556 147.951 17.384 148.17 17.9349 148.17H258.22C258.771 148.17 259.299 147.951 259.689 147.562C260.078 147.172 260.297 146.644 260.297 146.093C260.297 145.542 260.078 145.013 259.689 144.624C259.299 144.234 258.771 144.015 258.22 144.015H243.771H253.438C253.637 144.015 253.829 143.943 253.979 143.814C254.13 143.684 254.229 143.504 254.259 143.308L255.401 135.319H255.629C255.781 135.318 255.928 135.268 256.048 135.175C256.167 135.082 256.253 134.952 256.291 134.805L256.439 134.154C256.457 134.027 256.448 133.897 256.411 133.773C256.375 133.65 256.312 133.536 256.228 133.438C256.143 133.341 256.039 133.263 255.922 133.209C255.805 133.155 255.678 133.128 255.549 133.127H255.15C255.22 132.876 255.274 132.621 255.309 132.362C255.369 132.016 255.399 131.664 255.401 131.312C255.402 129.969 255.012 128.654 254.279 127.528C253.547 126.402 252.502 125.513 251.273 124.97C250.044 124.427 248.684 124.253 247.358 124.469C246.032 124.685 244.798 125.283 243.805 126.188V71.1185H252.935L146.62 15.4785L114.047 32.53L106.171 36.6959L100.236 39.8003L83.5501 30.8409L27.2025 61.0634C27.0008 61.1715 26.8251 61.3222 26.6877 61.5052C26.5502 61.6881 26.4542 61.8987 26.4064 62.1225C26.3586 62.3463 26.3601 62.5778 26.4109 62.8009C26.4617 63.0241 26.5604 63.2334 26.7003 63.4145C26.8345 63.5802 27.0016 63.7162 27.1911 63.814H27.2482L27.4879 63.9053H27.5792C27.693 63.9176 27.8078 63.9176 27.9216 63.9053C28.0465 63.9221 28.1732 63.9221 28.2982 63.9053C28.4241 63.8837 28.5444 63.8371 28.652 63.7683" fill="#B3B3B3"/>
</g>
<path d="M91.4709 43.544L124.478 61.2461C124.784 61.4136 125.025 61.6776 125.165 61.9969C125.304 62.3162 125.334 62.6726 125.249 63.0105C125.164 63.3485 124.97 63.6487 124.696 63.8643C124.422 64.0799 124.085 64.1987 123.736 64.2021C123.478 64.1999 123.224 64.1374 122.995 64.0195L92.7607 48.0408L120.723 62.8782V144.335H228.34V71.2898L131.201 22.4978L91.4709 43.544Z" fill="#7FA2D2"/>
<g style="mix-blend-mode:multiply" opacity="0.5">
<path d="M91.4709 43.544L124.478 61.2461C124.784 61.4136 125.025 61.6776 125.165 61.9969C125.304 62.3162 125.334 62.6726 125.249 63.0105C125.164 63.3485 124.97 63.6487 124.696 63.8643C124.422 64.0799 124.085 64.1987 123.736 64.2021C123.478 64.1999 123.224 64.1374 122.995 64.0195L92.7607 48.0408L120.723 62.8782V144.335H228.34V71.2898L131.201 22.4978L91.4709 43.544Z" fill="#7FA2D2"/>
</g>
<g style="mix-blend-mode:multiply" opacity="0.5">
<path d="M105.201 36.2736L91.5052 43.5439L124.478 61.2459C124.784 61.4134 125.025 61.6775 125.165 61.9967C125.304 62.316 125.334 62.6725 125.249 63.0104C125.164 63.3483 124.97 63.6486 124.696 63.8642C124.422 64.0798 124.085 64.1986 123.736 64.202C123.478 64.1998 123.224 64.1373 122.995 64.0194L92.7607 48.0407L120.723 62.878V144.335H135.823V53.8273L105.201 36.2736Z" fill="#7FA2D2"/>
</g>
<path d="M120.735 144.335H15.5266V62.8211L68.1307 34.9269L120.735 62.8211V144.335Z" fill="#7FA2D2"/>
<path d="M124.478 61.246L68.1307 31.0121L11.7945 61.246C11.489 61.4135 11.2476 61.6775 11.1082 61.9968C10.9688 62.3161 10.9392 62.6726 11.024 63.0105C11.1088 63.3484 11.3032 63.6486 11.5769 63.8643C11.8505 64.0799 12.188 64.1987 12.5363 64.2021C12.7907 64.1985 13.0407 64.136 13.2668 64.0194L68.1307 34.8812L122.995 63.9738C123.224 64.0917 123.478 64.1542 123.736 64.1564C124.071 64.1374 124.39 64.0125 124.648 63.7997C124.907 63.5869 125.091 63.2973 125.173 62.9729C125.256 62.6486 125.233 62.3063 125.108 61.9958C124.983 61.6853 124.763 61.4226 124.478 61.246Z" fill="#5C5A6F"/>
<path d="M95.6483 118.221V72.7164H36.2419V118.221H95.6483Z" fill="white"/>
<path d="M91.5851 114.409V76.517H40.2936V114.409H91.5851Z" fill="#92BAFF"/>
<path opacity="0.5" d="M40.2937 106.876V112.811L91.5966 99.1953V93.2604L40.2937 106.876Z" fill="white"/>
<path opacity="0.5" d="M91.5966 78.1377L40.2937 91.7538V97.6887L91.5966 84.0726V78.1377Z" fill="white"/>
<g style="mix-blend-mode:multiply" opacity="0.5">
<path d="M36.2418 118.221H95.6482V72.7278H98.3988V120.961H36.2418V118.221Z" fill="#7FA2D2"/>
</g>
<path d="M131.201 15.6498L84.7942 39.9602L91.471 43.544L131.201 22.4978L228.351 71.3012H237.482L131.201 15.6498Z" fill="#5C5A6F"/>
<path d="M176.991 92.8038V144.301H179.844V96.068H200.639V144.301H203.481V92.8038H176.991Z" fill="white"/>
<path d="M200.628 96.0681H179.833V144.301H200.628V96.0681Z" fill="#463A48"/>
<g style="mix-blend-mode:multiply" opacity="0.5">
<path d="M176.991 89.6309V92.8038H203.481V144.301H206.506V89.6309H176.991Z" fill="#7FA2D2"/>
</g>
<path d="M242.812 144.335H2.52687C1.37965 144.335 0.449646 145.265 0.449646 146.412C0.449646 147.56 1.37965 148.49 2.52687 148.49H242.812C243.959 148.49 244.889 147.56 244.889 146.412C244.889 145.265 243.959 144.335 242.812 144.335Z" fill="#B08267"/>
<g style="mix-blend-mode:multiply" opacity="0.5">
<g style="mix-blend-mode:multiply">
<path d="M113.499 122.992H107.746C107.4 122.992 107.119 123.273 107.119 123.62V124.807C107.119 125.154 107.4 125.435 107.746 125.435H113.499C113.845 125.435 114.126 125.154 114.126 124.807V123.62C114.126 123.273 113.845 122.992 113.499 122.992Z" fill="#7FA2D2"/>
</g>
<g style="mix-blend-mode:multiply">
<path d="M119.32 65.9484H113.567C113.221 65.9484 112.939 66.2294 112.939 66.5761V67.7631C112.939 68.1098 113.221 68.3908 113.567 68.3908H119.32C119.666 68.3908 119.947 68.1098 119.947 67.7631V66.5761C119.947 66.2294 119.666 65.9484 119.32 65.9484Z" fill="#7FA2D2"/>
</g>
<g style="mix-blend-mode:multiply">
<path d="M117.003 126.542H111.25C110.904 126.542 110.623 126.823 110.623 127.169V128.356C110.623 128.703 110.904 128.984 111.25 128.984H117.003C117.349 128.984 117.63 128.703 117.63 128.356V127.169C117.63 126.823 117.349 126.542 117.003 126.542Z" fill="#7FA2D2"/>
</g>
<g style="mix-blend-mode:multiply">
<path d="M108.009 116.292H102.257C101.91 116.292 101.629 116.574 101.629 116.92V118.107C101.629 118.454 101.91 118.735 102.257 118.735H108.009C108.356 118.735 108.637 118.454 108.637 118.107V116.92C108.637 116.574 108.356 116.292 108.009 116.292Z" fill="#7FA2D2"/>
</g>
<g style="mix-blend-mode:multiply">
<path d="M115.256 103.133H109.504C109.157 103.133 108.876 103.414 108.876 103.761V104.948C108.876 105.294 109.157 105.575 109.504 105.575H115.256C115.603 105.575 115.884 105.294 115.884 104.948V103.761C115.884 103.414 115.603 103.133 115.256 103.133Z" fill="#7FA2D2"/>
</g>
<g style="mix-blend-mode:multiply">
<path d="M170.999 118.187H165.247C164.9 118.187 164.619 118.468 164.619 118.815V120.002C164.619 120.349 164.9 120.63 165.247 120.63H170.999C171.346 120.63 171.627 120.349 171.627 120.002V118.815C171.627 118.468 171.346 118.187 170.999 118.187Z" fill="#7FA2D2"/>
</g>
<g style="mix-blend-mode:multiply">
<path d="M103.706 57.8562H97.9538C97.6071 57.8562 97.326 58.1372 97.326 58.4839V59.6709C97.326 60.0176 97.6071 60.2987 97.9538 60.2987H103.706C104.053 60.2987 104.334 60.0176 104.334 59.6709V58.4839C104.334 58.1372 104.053 57.8562 103.706 57.8562Z" fill="#7FA2D2"/>
</g>
<g style="mix-blend-mode:multiply">
<path d="M51.3532 124.088H45.6009C45.2542 124.088 44.9731 124.369 44.9731 124.716V125.903C44.9731 126.249 45.2542 126.53 45.6009 126.53H51.3532C51.6999 126.53 51.9809 126.249 51.9809 125.903V124.716C51.9809 124.369 51.6999 124.088 51.3532 124.088Z" fill="#7FA2D2"/>
</g>
<g style="mix-blend-mode:multiply">
<path d="M78.0717 122.593H83.824C84.1707 122.593 84.4518 122.312 84.4518 121.965V120.778C84.4518 120.431 84.1707 120.15 83.824 120.15H78.0717C77.725 120.15 77.444 120.431 77.444 120.778V121.965C77.444 122.312 77.725 122.593 78.0717 122.593Z" fill="#7FA2D2"/>
</g>
<g style="mix-blend-mode:multiply">
<path d="M74.5679 126.142H80.3203C80.6669 126.142 80.948 125.861 80.948 125.514V124.327C80.948 123.981 80.6669 123.7 80.3203 123.7H74.5679C74.2213 123.7 73.9402 123.981 73.9402 124.327V125.514C73.9402 125.861 74.2213 126.142 74.5679 126.142Z" fill="#7FA2D2"/>
</g>
<g style="mix-blend-mode:multiply">
<path d="M144.383 48.8284H150.135C150.482 48.8284 150.763 48.5473 150.763 48.2006V47.0136C150.763 46.667 150.482 46.3859 150.135 46.3859H144.383C144.036 46.3859 143.755 46.667 143.755 47.0136V48.2006C143.755 48.5473 144.036 48.8284 144.383 48.8284Z" fill="#7FA2D2"/>
</g>
<g style="mix-blend-mode:multiply">
<path d="M140.879 52.3778H146.632C146.978 52.3778 147.259 52.0968 147.259 51.7501V50.5631C147.259 50.2164 146.978 49.9354 146.632 49.9354H140.879C140.533 49.9354 140.252 50.2164 140.252 50.5631V51.7501C140.252 52.0968 140.533 52.3778 140.879 52.3778Z" fill="#7FA2D2"/>
</g>
<g style="mix-blend-mode:multiply">
<path d="M105.429 88.9918H111.182C111.528 88.9918 111.809 88.7108 111.809 88.3641V87.1771C111.809 86.8304 111.528 86.5494 111.182 86.5494H105.429C105.083 86.5494 104.802 86.8304 104.802 87.1771V88.3641C104.802 88.7108 105.083 88.9918 105.429 88.9918Z" fill="#7FA2D2"/>
</g>
<g style="mix-blend-mode:multiply">
<path d="M101.926 92.5414H107.678C108.025 92.5414 108.306 92.2603 108.306 91.9137V90.7267C108.306 90.38 108.025 90.0989 107.678 90.0989H101.926C101.579 90.0989 101.298 90.38 101.298 90.7267V91.9137C101.298 92.2603 101.579 92.5414 101.926 92.5414Z" fill="#7FA2D2"/>
</g>
<g style="mix-blend-mode:multiply">
<path d="M150.135 124.636H144.383C144.036 124.636 143.755 124.917 143.755 125.263V126.45C143.755 126.797 144.036 127.078 144.383 127.078H150.135C150.482 127.078 150.763 126.797 150.763 126.45V125.263C150.763 124.917 150.482 124.636 150.135 124.636Z" fill="#7FA2D2"/>
</g>
<g style="mix-blend-mode:multiply">
<path d="M175.701 58.8492H169.949C169.602 58.8492 169.321 59.1303 169.321 59.477V60.664C169.321 61.0107 169.602 61.2917 169.949 61.2917H175.701C176.048 61.2917 176.329 61.0107 176.329 60.664V59.477C176.329 59.1303 176.048 58.8492 175.701 58.8492Z" fill="#7FA2D2"/>
</g>
<g style="mix-blend-mode:multiply">
<path d="M128.519 119.408H134.271C134.618 119.408 134.899 119.127 134.899 118.781V117.594C134.899 117.247 134.618 116.966 134.271 116.966H128.519C128.172 116.966 127.891 117.247 127.891 117.594V118.781C127.891 119.127 128.172 119.408 128.519 119.408Z" fill="#7FA2D2"/>
</g>
<g style="mix-blend-mode:multiply">
<path d="M125.015 122.958H130.767C131.114 122.958 131.395 122.677 131.395 122.33V121.143C131.395 120.796 131.114 120.515 130.767 120.515H125.015C124.668 120.515 124.387 120.796 124.387 121.143V122.33C124.387 122.677 124.668 122.958 125.015 122.958Z" fill="#7FA2D2"/>
</g>
<g style="mix-blend-mode:multiply">
<path d="M37.0065 56.7491H42.7589C43.1056 56.7491 43.3866 56.4681 43.3866 56.1214V54.9344C43.3866 54.5877 43.1056 54.3067 42.7589 54.3067H37.0065C36.6599 54.3067 36.3788 54.5877 36.3788 54.9344V56.1214C36.3788 56.4681 36.6599 56.7491 37.0065 56.7491Z" fill="#7FA2D2"/>
</g>
<g style="mix-blend-mode:multiply">
<path d="M33.5028 60.2987H39.2551C39.6018 60.2987 39.8828 60.0177 39.8828 59.671V58.484C39.8828 58.1373 39.6018 57.8563 39.2551 57.8563H33.5028C33.1561 57.8563 32.875 58.1373 32.875 58.484V59.671C32.875 60.0177 33.1561 60.2987 33.5028 60.2987Z" fill="#7FA2D2"/>
</g>
<g style="mix-blend-mode:multiply">
<path d="M112.848 44.6053H107.096C106.749 44.6053 106.468 44.8864 106.468 45.2331V46.4201C106.468 46.7668 106.749 47.0478 107.096 47.0478H112.848C113.195 47.0478 113.476 46.7668 113.476 46.4201V45.2331C113.476 44.8864 113.195 44.6053 112.848 44.6053Z" fill="#7FA2D2"/>
</g>
<g style="mix-blend-mode:multiply">
<path d="M116.352 48.1549H110.6C110.253 48.1549 109.972 48.436 109.972 48.7826V49.9696C109.972 50.3163 110.253 50.5974 110.6 50.5974H116.352C116.699 50.5974 116.98 50.3163 116.98 49.9696V48.7826C116.98 48.436 116.699 48.1549 116.352 48.1549Z" fill="#7FA2D2"/>
</g>
<g style="mix-blend-mode:multiply">
<path d="M72.1939 57.6279H66.4416C66.0949 57.6279 65.8138 57.909 65.8138 58.2557V59.4426C65.8138 59.7893 66.0949 60.0704 66.4416 60.0704H72.1939C72.5406 60.0704 72.8216 59.7893 72.8216 59.4426V58.2557C72.8216 57.909 72.5406 57.6279 72.1939 57.6279Z" fill="#7FA2D2"/>
</g>
<g style="mix-blend-mode:multiply">
<path d="M75.6977 61.1776H69.9454C69.5987 61.1776 69.3176 61.4587 69.3176 61.8053V62.9923C69.3176 63.339 69.5987 63.6201 69.9454 63.6201H75.6977C76.0444 63.6201 76.3254 63.339 76.3254 62.9923V61.8053C76.3254 61.4587 76.0444 61.1776 75.6977 61.1776Z" fill="#7FA2D2"/>
</g>
<g style="mix-blend-mode:multiply">
<path d="M79.2017 64.7271H73.4494C73.1027 64.7271 72.8217 65.0081 72.8217 65.3548V66.5418C72.8217 66.8885 73.1027 67.1695 73.4494 67.1695H79.2017C79.5484 67.1695 79.8294 66.8885 79.8294 66.5418V65.3548C79.8294 65.0081 79.5484 64.7271 79.2017 64.7271Z" fill="#7FA2D2"/>
</g>
<g style="mix-blend-mode:multiply">
<path d="M145.57 68.4021H139.818C139.471 68.4021 139.19 68.6831 139.19 69.0298V70.2168C139.19 70.5635 139.471 70.8446 139.818 70.8446H145.57C145.917 70.8446 146.198 70.5635 146.198 70.2168V69.0298C146.198 68.6831 145.917 68.4021 145.57 68.4021Z" fill="#7FA2D2"/>
</g>
<g style="mix-blend-mode:multiply">
<path d="M149.074 71.9518H143.322C142.975 71.9518 142.694 72.2328 142.694 72.5795V73.7665C142.694 74.1132 142.975 74.3942 143.322 74.3942H149.074C149.421 74.3942 149.702 74.1132 149.702 73.7665V72.5795C149.702 72.2328 149.421 71.9518 149.074 71.9518Z" fill="#7FA2D2"/>
</g>
<g style="mix-blend-mode:multiply">
<path d="M152.578 75.5012H146.826C146.479 75.5012 146.198 75.7823 146.198 76.129V77.3159C146.198 77.6626 146.479 77.9437 146.826 77.9437H152.578C152.925 77.9437 153.206 77.6626 153.206 77.3159V76.129C153.206 75.7823 152.925 75.5012 152.578 75.5012Z" fill="#7FA2D2"/>
</g>
<g style="mix-blend-mode:multiply">
<path d="M172.403 84.5178H178.155C178.502 84.5178 178.783 84.2368 178.783 83.8901V82.7031C178.783 82.3564 178.502 82.0754 178.155 82.0754H172.403C172.056 82.0754 171.775 82.3564 171.775 82.7031V83.8901C171.775 84.2368 172.056 84.5178 172.403 84.5178Z" fill="#7FA2D2"/>
</g>
<g style="mix-blend-mode:multiply">
<path d="M168.899 88.0674H174.651C174.998 88.0674 175.279 87.7863 175.279 87.4397V86.2527C175.279 85.906 174.998 85.6249 174.651 85.6249H168.899C168.552 85.6249 168.271 85.906 168.271 86.2527V87.4397C168.271 87.7863 168.552 88.0674 168.899 88.0674Z" fill="#7FA2D2"/>
</g>
<g style="mix-blend-mode:multiply">
<path d="M207.59 85.3966H201.838C201.491 85.3966 201.21 85.6777 201.21 86.0243V87.2113C201.21 87.558 201.491 87.8391 201.838 87.8391H207.59C207.937 87.8391 208.218 87.558 208.218 87.2113V86.0243C208.218 85.6777 207.937 85.3966 207.59 85.3966Z" fill="#7FA2D2"/>
</g>
<g style="mix-blend-mode:multiply">
<path d="M211.094 88.9462H205.342C204.995 88.9462 204.714 89.2272 204.714 89.5739V90.7609C204.714 91.1076 204.995 91.3886 205.342 91.3886H211.094C211.441 91.3886 211.722 91.1076 211.722 90.7609V89.5739C211.722 89.2272 211.441 88.9462 211.094 88.9462Z" fill="#7FA2D2"/>
</g>
<g style="mix-blend-mode:multiply">
<path d="M214.598 92.4957H208.846C208.499 92.4957 208.218 92.7768 208.218 93.1235V94.3104C208.218 94.6571 208.499 94.9382 208.846 94.9382H214.598C214.945 94.9382 215.226 94.6571 215.226 94.3104V93.1235C215.226 92.7768 214.945 92.4957 214.598 92.4957Z" fill="#7FA2D2"/>
</g>
<g style="mix-blend-mode:multiply">
<path d="M26.1411 95.3718V93.7511C26.1382 93.634 26.0904 93.5225 26.0075 93.4396C25.9247 93.3567 25.8131 93.3089 25.696 93.306H22.272V95.7599H25.696C25.8041 95.7584 25.9082 95.7186 25.9897 95.6475C26.0712 95.5765 26.1249 95.4788 26.1411 95.3718Z" fill="#7FA2D2"/>
</g>
<g style="mix-blend-mode:multiply">
<path d="M26.8145 77.1106V78.6628C26.8129 78.7217 26.8234 78.7802 26.8452 78.835C26.867 78.8897 26.8997 78.9394 26.9414 78.981C26.983 79.0227 27.0327 79.0554 27.0874 79.0772C27.1421 79.099 27.2007 79.1095 27.2596 79.1079H30.6836V76.6654H27.2596C27.2007 76.6639 27.1421 76.6743 27.0874 76.6961C27.0327 76.7179 26.983 76.7507 26.9414 76.7923C26.8997 76.834 26.867 76.8837 26.8452 76.9384C26.8234 76.9931 26.8129 77.0517 26.8145 77.1106Z" fill="#7FA2D2"/>
</g>
<g style="mix-blend-mode:multiply">
<path d="M26.8145 110.392V111.944C26.8129 112.003 26.8234 112.061 26.8452 112.116C26.867 112.171 26.8997 112.221 26.9414 112.262C26.983 112.304 27.0327 112.337 27.0874 112.358C27.1421 112.38 27.2007 112.391 27.2596 112.389H30.6836V109.947H27.2596C27.2007 109.945 27.1421 109.956 27.0874 109.977C27.0327 109.999 26.983 110.032 26.9414 110.074C26.8997 110.115 26.867 110.165 26.8452 110.22C26.8234 110.274 26.8129 110.333 26.8145 110.392Z" fill="#7FA2D2"/>
</g>
</g>
<path d="M13.6891 130.445H122.572C123.438 130.445 124.268 130.789 124.88 131.401C125.493 132.013 125.837 132.844 125.837 133.709V144.301H10.4249V133.709C10.4249 132.844 10.7688 132.013 11.381 131.401C11.9932 130.789 12.8234 130.445 13.6891 130.445Z" fill="#5C5A6F"/>
<path d="M213.947 130.445H229.778C230.206 130.445 230.631 130.53 231.027 130.694C231.423 130.858 231.783 131.098 232.086 131.401C232.389 131.704 232.629 132.064 232.793 132.46C232.958 132.856 233.042 133.281 233.042 133.709V144.301H210.683V133.709C210.683 132.844 211.027 132.013 211.639 131.401C212.251 130.789 213.082 130.445 213.947 130.445Z" fill="#5C5A6F"/>
<path d="M123.999 130.445H167.027C167.893 130.445 168.723 130.789 169.335 131.401C169.948 132.013 170.292 132.844 170.292 133.709V144.301H120.735V133.709C120.735 132.844 121.079 132.013 121.691 131.401C122.303 130.789 123.133 130.445 123.999 130.445Z" fill="#5C5A6F"/>
<g style="mix-blend-mode:multiply" opacity="0.5">
<path d="M131.201 22.4978L91.4709 43.544L96.5271 46.2489L131.201 27.8849L228.351 76.6883V71.3012L131.201 22.4978Z" fill="#7FA2D2"/>
</g>
<path d="M185.448 123.209C185.448 123.492 185.364 123.768 185.207 124.003C185.05 124.238 184.826 124.42 184.565 124.528C184.304 124.636 184.016 124.663 183.739 124.607C183.462 124.551 183.208 124.414 183.009 124.214C182.81 124.013 182.675 123.758 182.621 123.48C182.567 123.203 182.597 122.916 182.707 122.655C182.817 122.395 183.001 122.173 183.237 122.017C183.473 121.862 183.75 121.78 184.033 121.782C184.22 121.782 184.405 121.819 184.577 121.891C184.75 121.963 184.906 122.068 185.038 122.201C185.169 122.333 185.273 122.491 185.344 122.664C185.414 122.837 185.45 123.022 185.448 123.209Z" fill="white"/>
<g style="mix-blend-mode:multiply" opacity="0.5">
<path d="M223.786 98.9099H211.722V105.792H223.786V98.9099Z" fill="#7FA2D2"/>
</g>
<path d="M222.188 98.9099H211.722V104.365H222.188V98.9099Z" fill="white"/>
<path d="M221.252 99.8916H212.658V103.373H221.252V99.8916Z" fill="#463A48"/>
<g style="mix-blend-mode:multiply" opacity="0.5">
<path d="M191.109 77.5328C190.306 77.5328 189.52 77.7711 188.852 78.2176C188.184 78.6641 187.663 79.2986 187.356 80.0411C187.048 80.7835 186.968 81.6005 187.124 82.3887C187.281 83.1768 187.668 83.9008 188.236 84.4691C188.805 85.0373 189.529 85.4243 190.317 85.5811C191.105 85.7378 191.922 85.6574 192.664 85.3498C193.407 85.0423 194.041 84.5215 194.488 83.8533C194.934 83.1852 195.173 82.3996 195.173 81.596C195.173 80.5184 194.744 79.4849 193.982 78.7229C193.221 77.9609 192.187 77.5328 191.109 77.5328Z" fill="#7FA2D2"/>
</g>
<path d="M194.476 80.5346C194.476 81.3382 194.238 82.1238 193.792 82.7919C193.345 83.4601 192.711 83.9809 191.968 84.2884C191.226 84.596 190.409 84.6764 189.621 84.5197C188.832 84.3629 188.108 83.9759 187.54 83.4077C186.972 82.8394 186.585 82.1154 186.428 81.3273C186.271 80.5391 186.352 79.7221 186.659 78.9797C186.967 78.2372 187.488 77.6027 188.156 77.1562C188.824 76.7097 189.61 76.4714 190.413 76.4714C191.491 76.4714 192.524 76.8995 193.286 77.6615C194.048 78.4235 194.476 79.457 194.476 80.5346Z" fill="white"/>
<path d="M190.356 83.5134C192.008 83.5134 193.346 82.1746 193.346 80.5231C193.346 78.8716 192.008 77.5328 190.356 77.5328C188.705 77.5328 187.366 78.8716 187.366 80.5231C187.366 82.1746 188.705 83.5134 190.356 83.5134Z" fill="#FCD049"/>
<g style="mix-blend-mode:multiply">
<path d="M192.525 78.4801C192.678 78.8408 192.756 79.2293 192.753 79.6214C192.751 80.2144 192.571 80.7931 192.238 81.2836C191.905 81.774 191.433 82.1539 190.882 82.3745C190.332 82.5951 189.728 82.6465 189.149 82.522C188.569 82.3976 188.04 82.1029 187.628 81.6758C187.909 82.2879 188.388 82.7873 188.988 83.0932C189.587 83.3992 190.273 83.4938 190.933 83.3618C191.593 83.2298 192.189 82.8788 192.625 82.3657C193.061 81.8526 193.311 81.2074 193.335 80.5345C193.344 79.7701 193.053 79.0325 192.525 78.4801Z" fill="#FCD049"/>
</g>
<path d="M4.67255 135.615L5.81388 143.605C5.84136 143.803 5.93959 143.985 6.09055 144.117C6.24151 144.25 6.43505 144.323 6.63564 144.324H16.6223C16.8229 144.323 17.0164 144.25 17.1674 144.117C17.3184 143.985 17.4166 143.803 17.4441 143.605L18.5854 135.615H4.67255Z" fill="#8C939C"/>
<path d="M19.6013 134.451C19.6192 134.323 19.6096 134.194 19.5731 134.07C19.5367 133.947 19.4741 133.832 19.3898 133.735C19.3054 133.638 19.2012 133.56 19.0841 133.506C18.9671 133.452 18.8398 133.424 18.711 133.424H4.52427C4.39548 133.424 4.26826 133.452 4.15118 133.506C4.0341 133.56 3.92988 133.638 3.84553 133.735C3.76118 133.832 3.69866 133.947 3.66217 134.07C3.62569 134.194 3.61609 134.323 3.63403 134.451L3.7824 135.102C3.82031 135.248 3.90587 135.378 4.02568 135.471C4.14548 135.564 4.29274 135.615 4.44437 135.615H18.7909C18.9426 135.615 19.0898 135.564 19.2096 135.471C19.3294 135.378 19.415 135.248 19.4529 135.102L19.6013 134.451Z" fill="#8C939C"/>
<g style="mix-blend-mode:multiply" opacity="0.5">
<path d="M4.67255 135.615L4.79809 136.528H18.437L18.5626 135.615H4.67255Z" fill="#8C939C"/>
</g>
<g style="mix-blend-mode:multiply">
<path d="M19.6013 134.451C19.6192 134.323 19.6096 134.194 19.5731 134.07C19.5367 133.947 19.4741 133.832 19.3898 133.735C19.3054 133.638 19.2012 133.56 19.0841 133.506C18.9671 133.452 18.8398 133.424 18.711 133.424H4.52427C4.39548 133.424 4.26826 133.452 4.15118 133.506C4.0341 133.56 3.92988 133.638 3.84553 133.735C3.76118 133.832 3.69866 133.947 3.66217 134.07C3.62569 134.194 3.61609 134.323 3.63403 134.451L3.7824 135.102C3.82031 135.248 3.90587 135.378 4.02568 135.471C4.14548 135.564 4.29274 135.615 4.44437 135.615H18.7909C18.9426 135.615 19.0898 135.564 19.2096 135.471C19.3294 135.378 19.415 135.248 19.4529 135.102L19.6013 134.451Z" fill="#8C939C"/>
</g>
<g style="mix-blend-mode:multiply" opacity="0.5">
<path d="M6.86391 142.532L5.88236 135.615H4.67255L5.81388 143.605C5.84136 143.803 5.93959 143.985 6.09055 144.117C6.24151 144.25 6.43505 144.323 6.63564 144.324H16.6223C16.8229 144.323 17.0164 144.25 17.1674 144.117C17.3184 143.985 17.4166 143.803 17.4441 143.605V143.228H7.68567C7.48783 143.23 7.29579 143.161 7.14483 143.033C6.99387 142.905 6.89412 142.727 6.86391 142.532Z" fill="#8C939C"/>
</g>
<path d="M18.5625 131.609C18.6005 130.673 18.4489 129.74 18.117 128.864C17.7851 127.988 17.2796 127.189 16.631 126.513C15.9824 125.838 15.2039 125.3 14.3424 124.933C13.4808 124.566 12.554 124.377 11.6175 124.377C10.681 124.377 9.75421 124.566 8.89268 124.933C8.03116 125.3 7.2527 125.838 6.60406 126.513C5.95541 127.189 5.44996 127.988 5.11804 128.864C4.78611 129.74 4.63458 130.673 4.67252 131.609C4.67456 132.223 4.75901 132.833 4.92361 133.424H18.3114C18.476 132.833 18.5605 132.223 18.5625 131.609Z" fill="#87DB44"/>
<g style="mix-blend-mode:multiply" opacity="0.5">
<path d="M6.72695 130.046C6.72799 128.329 7.36656 126.673 8.51884 125.4C7.36309 125.974 6.39062 126.86 5.71105 127.957C5.03147 129.054 4.67179 130.319 4.67255 131.609C4.67459 132.223 4.75904 132.833 4.92364 133.424H18.3115C18.4456 132.913 18.5222 132.388 18.5397 131.86H8.62156C8.13199 131.87 7.65852 131.685 7.30384 131.348C6.94917 131.01 6.74188 130.546 6.72695 130.057V130.046Z" fill="#87DB44"/>
</g>
<path d="M226.091 135.615L227.233 143.605C227.26 143.803 227.358 143.985 227.509 144.117C227.66 144.25 227.854 144.323 228.054 144.324H238.03C238.23 144.323 238.424 144.25 238.575 144.117C238.726 143.985 238.824 143.803 238.851 143.605L239.993 135.615H226.091Z" fill="#8C939C"/>
<path d="M241.02 134.451C241.04 134.323 241.032 134.193 240.996 134.068C240.96 133.944 240.898 133.829 240.813 133.731C240.728 133.633 240.623 133.555 240.505 133.502C240.387 133.449 240.259 133.422 240.13 133.424H225.931C225.803 133.424 225.675 133.452 225.558 133.506C225.441 133.56 225.337 133.638 225.253 133.735C225.168 133.832 225.106 133.947 225.069 134.07C225.033 134.194 225.023 134.324 225.041 134.451L225.201 135.102C225.237 135.248 225.32 135.377 225.438 135.47C225.556 135.563 225.701 135.614 225.852 135.615H240.21C240.36 135.614 240.505 135.563 240.623 135.47C240.741 135.377 240.825 135.248 240.86 135.102L241.02 134.451Z" fill="#8C939C"/>
<g style="mix-blend-mode:multiply" opacity="0.5">
<path d="M226.091 135.615L226.217 136.528H239.844L239.97 135.615H226.091Z" fill="#8C939C"/>
</g>
<g style="mix-blend-mode:multiply">
<path d="M241.02 134.451C241.04 134.323 241.032 134.193 240.996 134.068C240.96 133.944 240.898 133.829 240.813 133.731C240.728 133.633 240.623 133.555 240.505 133.502C240.387 133.449 240.259 133.422 240.13 133.424H225.931C225.803 133.424 225.675 133.452 225.558 133.506C225.441 133.56 225.337 133.638 225.253 133.735C225.168 133.832 225.106 133.947 225.069 134.07C225.033 134.194 225.023 134.324 225.041 134.451L225.201 135.102C225.237 135.248 225.32 135.377 225.438 135.47C225.556 135.563 225.701 135.614 225.852 135.615H240.21C240.36 135.614 240.505 135.563 240.623 135.47C240.741 135.377 240.825 135.248 240.86 135.102L241.02 134.451Z" fill="#8C939C"/>
</g>
<g style="mix-blend-mode:multiply" opacity="0.5">
<path d="M228.271 142.52L227.301 135.672H226.091L227.233 143.662C227.26 143.86 227.358 144.043 227.509 144.175C227.66 144.307 227.854 144.38 228.054 144.381H238.03C238.23 144.38 238.424 144.307 238.575 144.175C238.726 144.043 238.824 143.86 238.851 143.662V143.285H229.047C228.848 143.272 228.659 143.188 228.517 143.047C228.374 142.907 228.287 142.72 228.271 142.52Z" fill="#8C939C"/>
</g>
<path d="M239.97 131.598C239.97 129.757 239.239 127.992 237.937 126.691C236.636 125.39 234.871 124.659 233.03 124.659C231.19 124.659 229.425 125.39 228.124 126.691C226.822 127.992 226.091 129.757 226.091 131.598C226.092 132.215 226.177 132.829 226.342 133.424H239.73C239.886 132.828 239.967 132.214 239.97 131.598Z" fill="#87DB44"/>
<g style="mix-blend-mode:multiply" opacity="0.5">
<path d="M228.146 130.034C228.139 128.321 228.774 126.668 229.926 125.4C228.774 125.975 227.805 126.859 227.128 127.954C226.45 129.049 226.091 130.311 226.091 131.598C226.092 132.215 226.177 132.829 226.342 133.424H239.73C239.859 132.912 239.935 132.388 239.958 131.86H230.029C229.54 131.87 229.068 131.685 228.715 131.347C228.362 131.009 228.158 130.545 228.146 130.057V130.034Z" fill="#87DB44"/>
</g>
<path d="M165.92 113.93V77.5671H151.357V113.93H165.92Z" fill="white"/>
<path d="M162.679 110.894V80.6144H154.598V110.894H162.679Z" fill="#92BAFF"/>
<path opacity="0.5" d="M154.598 104.856V109.604L162.679 98.7274V93.9795L154.598 104.856Z" fill="white"/>
<path opacity="0.5" d="M162.679 81.8927L154.598 92.7696V97.5176L162.679 86.6406V81.8927Z" fill="white"/>
<g style="mix-blend-mode:multiply" opacity="0.5">
<path d="M151.357 113.93H165.92V77.5671H168.123V116.121H151.357V113.93Z" fill="#7FA2D2"/>
</g>
<path d="M140.959 113.93V77.5671H126.396V113.93H140.959Z" fill="white"/>
<path d="M137.718 110.894V80.6144H129.637V110.894H137.718Z" fill="#92BAFF"/>
<path opacity="0.5" d="M129.637 104.856V109.604L137.718 98.7274V93.9795L129.637 104.856Z" fill="white"/>
<path opacity="0.5" d="M137.718 81.8927L129.637 92.7696V97.5176L137.718 86.6406V81.8927Z" fill="white"/>
<g style="mix-blend-mode:multiply" opacity="0.5">
<path d="M126.396 113.93H140.959V77.5671H143.162V116.121H126.396V113.93Z" fill="#7FA2D2"/>
</g>
<g style="mix-blend-mode:multiply" opacity="0.5">
<path d="M131.201 22.4977L228.351 71.3012H232.494L131.201 19.7814L88.6863 42.0488L91.4711 43.5439L131.201 22.4977Z" fill="#5C5A6F"/>
</g>
<g style="mix-blend-mode:multiply" opacity="0.5">
<path d="M12.5364 64.202C12.7907 64.1985 13.0408 64.1359 13.2669 64.0194L68.1308 34.8811L122.995 63.9737C123.224 64.0916 123.478 64.1542 123.737 64.1563C123.971 64.1603 124.204 64.1099 124.416 64.0089C124.627 63.9079 124.813 63.7591 124.958 63.5742C124.824 63.4156 124.661 63.2839 124.478 63.1862L68.1308 32.9979L11.7945 63.2318C11.6095 63.3265 11.4463 63.4586 11.3152 63.6199C11.4593 63.8054 11.6447 63.9547 11.8568 64.0557C12.0688 64.1568 12.3016 64.2069 12.5364 64.202Z" fill="#5C5A6F"/>
</g>
<g style="mix-blend-mode:multiply" opacity="0.5">
<path d="M98.6043 32.6785L84.9083 39.9488L124.478 61.246C124.784 61.4135 125.025 61.6776 125.165 61.9968C125.304 62.3161 125.334 62.6726 125.249 63.0105C125.164 63.3484 124.97 63.6487 124.696 63.8643C124.422 64.0799 124.085 64.1987 123.736 64.2021C123.478 64.1999 123.224 64.1374 122.995 64.0195L92.7607 48.0408L120.723 62.8781V144.335H135.823V53.8274L98.6043 32.6785Z" fill="#7FA2D2"/>
</g>
<path d="M115.724 135.615L116.866 143.605C116.893 143.803 116.991 143.985 117.142 144.117C117.293 144.25 117.487 144.323 117.687 144.324H127.663C127.864 144.325 128.059 144.253 128.21 144.12C128.362 143.988 128.459 143.804 128.484 143.605L129.626 135.615H115.724Z" fill="#8C939C"/>
<path d="M130.653 134.451C130.673 134.323 130.665 134.193 130.629 134.068C130.593 133.944 130.531 133.829 130.446 133.731C130.361 133.633 130.256 133.555 130.138 133.502C130.02 133.449 129.892 133.422 129.763 133.424H115.576C115.447 133.422 115.318 133.449 115.2 133.502C115.082 133.555 114.977 133.633 114.893 133.731C114.808 133.829 114.745 133.944 114.71 134.068C114.674 134.193 114.666 134.323 114.686 134.451L114.834 135.102C114.871 135.247 114.955 135.375 115.073 135.468C115.19 135.561 115.335 135.613 115.485 135.615H129.843C129.993 135.614 130.138 135.563 130.256 135.47C130.374 135.377 130.457 135.248 130.493 135.102L130.653 134.451Z" fill="#8C939C"/>
<g style="mix-blend-mode:multiply" opacity="0.5">
<path d="M115.724 135.615L115.85 136.528H129.477L129.614 135.615H115.724Z" fill="#8C939C"/>
</g>
<g style="mix-blend-mode:multiply">
<path d="M130.653 134.451C130.673 134.323 130.665 134.193 130.629 134.068C130.593 133.944 130.531 133.829 130.446 133.731C130.361 133.633 130.256 133.555 130.138 133.502C130.02 133.449 129.892 133.422 129.763 133.424H115.576C115.447 133.422 115.318 133.449 115.2 133.502C115.082 133.555 114.977 133.633 114.893 133.731C114.808 133.829 114.745 133.944 114.71 134.068C114.674 134.193 114.666 134.323 114.686 134.451L114.834 135.102C114.871 135.247 114.955 135.375 115.073 135.468C115.19 135.561 115.335 135.613 115.485 135.615H129.843C129.993 135.614 130.138 135.563 130.256 135.47C130.374 135.377 130.457 135.248 130.493 135.102L130.653 134.451Z" fill="#8C939C"/>
</g>
<g style="mix-blend-mode:multiply" opacity="0.5">
<path d="M117.904 142.52L116.934 135.672H115.724L116.866 143.662C116.893 143.86 116.991 144.043 117.142 144.175C117.293 144.307 117.487 144.38 117.687 144.381H127.663C127.864 144.382 128.059 144.31 128.21 144.177C128.362 144.045 128.459 143.861 128.484 143.662V143.285H118.68C118.481 143.272 118.293 143.188 118.15 143.047C118.008 142.907 117.92 142.72 117.904 142.52Z" fill="#8C939C"/>
</g>
<path d="M129.614 131.598C129.542 129.805 128.778 128.109 127.484 126.866C126.189 125.623 124.464 124.929 122.669 124.929C120.875 124.929 119.15 125.623 117.855 126.866C116.561 128.109 115.797 129.805 115.724 131.598C115.725 132.215 115.81 132.829 115.975 133.424H129.42C129.567 132.827 129.632 132.212 129.614 131.598Z" fill="#87DB44"/>
<g style="mix-blend-mode:multiply" opacity="0.5">
<path d="M117.779 130.034C117.775 128.32 118.414 126.666 119.571 125.4C118.416 125.972 117.444 126.856 116.764 127.951C116.085 129.046 115.724 130.309 115.724 131.598C115.725 132.215 115.81 132.829 115.975 133.424H129.42C129.554 132.913 129.631 132.388 129.649 131.86H119.719C119.231 131.87 118.758 131.685 118.405 131.347C118.053 131.009 117.848 130.545 117.836 130.057L117.779 130.034Z" fill="#87DB44"/>
</g>
</svg>
