<svg width="25" height="25" viewBox="0 0 25 25" fill="none" xmlns="http://www.w3.org/2000/svg">
<path d="M5.66016 21.1836C5.11016 21.1836 4.63916 20.9876 4.24716 20.5956C3.85516 20.2036 3.65949 19.7329 3.66016 19.1836V5.1836C3.66016 4.6336 3.85616 4.1626 4.24816 3.7706C4.64016 3.3786 5.11082 3.18293 5.66016 3.1836H19.6602C20.2102 3.1836 20.6812 3.3796 21.0732 3.7716C21.4652 4.1636 21.6608 4.63426 21.6602 5.1836V7.6836H19.6602V5.1836H5.66016V19.1836H19.6602V16.6836H21.6602V19.1836C21.6602 19.7336 21.4642 20.2046 21.0722 20.5966C20.6802 20.9886 20.2095 21.1843 19.6602 21.1836H5.66016ZM13.6602 17.1836C13.1102 17.1836 12.6392 16.9876 12.2472 16.5956C11.8552 16.2036 11.6595 15.7329 11.6602 15.1836V9.1836C11.6602 8.6336 11.8562 8.1626 12.2482 7.7706C12.6402 7.3786 13.1108 7.18293 13.6602 7.1836H20.6602C21.2102 7.1836 21.6812 7.3796 22.0732 7.7716C22.4652 8.1636 22.6608 8.63426 22.6602 9.1836V15.1836C22.6602 15.7336 22.4642 16.2046 22.0722 16.5966C21.6802 16.9886 21.2095 17.1843 20.6602 17.1836H13.6602ZM20.6602 15.1836V9.1836H13.6602V15.1836H20.6602ZM16.6602 13.6836C17.0768 13.6836 17.4312 13.5376 17.7232 13.2456C18.0152 12.9536 18.1608 12.5996 18.1602 12.1836C18.1602 11.7669 18.0142 11.4126 17.7222 11.1206C17.4302 10.8286 17.0762 10.6829 16.6602 10.6836C16.2435 10.6836 15.8892 10.8296 15.5972 11.1216C15.3052 11.4136 15.1595 11.7676 15.1602 12.1836C15.1602 12.6003 15.3062 12.9546 15.5982 13.2466C15.8902 13.5386 16.2442 13.6843 16.6602 13.6836Z" fill="white"/>
</svg>
