<svg width="40" height="40" viewBox="0 0 40 40" fill="none" xmlns="http://www.w3.org/2000/svg">
<rect width="40" height="40" rx="20" fill="#FFF0D4"/>
<path d="M20.865 11L30.391 27.5C30.4788 27.652 30.525 27.8244 30.525 28C30.525 28.1755 30.4788 28.348 30.391 28.5C30.3032 28.652 30.177 28.7782 30.025 28.866C29.873 28.9538 29.7005 29 29.525 29H10.473C10.2975 29 10.125 28.9538 9.97301 28.866C9.82099 28.7782 9.69476 28.652 9.60699 28.5C9.51923 28.348 9.47303 28.1755 9.47303 28C9.47303 27.8244 9.51923 27.652 9.607 27.5L19.133 11C19.2208 10.848 19.347 10.7218 19.499 10.634C19.651 10.5462 19.8235 10.5 19.999 10.5C20.1745 10.5 20.347 10.5462 20.499 10.634C20.651 10.7218 20.7772 10.848 20.865 11ZM18.999 24V26H20.999V24H18.999ZM18.999 17V22H20.999V17H18.999Z" fill="#FCBB4D"/>
</svg>
